<svg xmlns="http://www.w3.org/2000/svg" viewBox="-0.5 -0.5 24 24" id="Interface-Essential-Sound--Streamline-Pixel.svg" height="24" width="24"><desc>Interface Essential Sound Streamline Icon: https://streamlinehq.com</desc><title>interface-essential-sound</title><g><path d="M21.9003125 7.11921875H23v8.7615625h-1.0996875Z" fill="#000000" stroke-width="1"></path><path d="M20.8078125 15.880781249999998h1.0925v1.0925h-1.0925Z" fill="#000000" stroke-width="1"></path><path d="M20.8078125 6.01953125h1.0925v1.0996875h-1.0925Z" fill="#000000" stroke-width="1"></path><path d="M19.7153125 16.97328125h1.0925v1.0925h-1.0925Z" fill="#000000" stroke-width="1"></path><path d="M19.7153125 9.30421875h1.0925v4.3843749999999995h-1.0925Z" fill="#000000" stroke-width="1"></path><path d="M19.7153125 4.927031250000001h1.0925v1.0925h-1.0925Z" fill="#000000" stroke-width="1"></path><path d="M18.615624999999998 13.68859375h1.0996875v1.0925H18.615624999999998Z" fill="#000000" stroke-width="1"></path><path d="M18.615624999999998 8.211718750000001h1.0996875v1.0925H18.615624999999998Z" fill="#000000" stroke-width="1"></path><path d="M17.523125 10.40390625h1.0925v2.1921874999999997h-1.0925Z" fill="#000000" stroke-width="1"></path><path d="M15.3309375 3.83453125h1.0925v15.3309375h-1.0925Z" fill="#000000" stroke-width="1"></path><path d="M14.2384375 19.16546875h1.0925v1.0925h-1.0925Z" fill="#000000" stroke-width="1"></path><path d="M14.2384375 2.73484375h1.0925v1.0996875h-1.0925Z" fill="#000000" stroke-width="1"></path><path d="M10.95375 20.25796875h3.2846875000000004v1.0996875h-3.2846875000000004Z" fill="#000000" stroke-width="1"></path><path d="M12.04625 15.880781249999998h1.0925v1.0925h-1.0925Z" fill="#000000" stroke-width="1"></path><path d="M12.04625 6.01953125h1.0925v1.0996875h-1.0925Z" fill="#000000" stroke-width="1"></path><path d="M10.95375 1.6423437500000002h3.2846875000000004v1.0925h-3.2846875000000004Z" fill="#000000" stroke-width="1"></path><path d="M10.95375 7.11921875h1.0925v8.7615625h-1.0925Z" fill="#000000" stroke-width="1"></path><path d="M9.854062500000001 19.16546875h1.0996875v1.0925h-1.0996875Z" fill="#000000" stroke-width="1"></path><path d="M9.854062500000001 2.73484375h1.0996875v1.0996875h-1.0996875Z" fill="#000000" stroke-width="1"></path><path d="M8.7615625 18.06578125h1.0925v1.0996875h-1.0925Z" fill="#000000" stroke-width="1"></path><path d="M8.7615625 3.83453125h1.0925v1.0925h-1.0925Z" fill="#000000" stroke-width="1"></path><path d="M7.661875 16.97328125h1.0996875v1.0925h-1.0996875Z" fill="#000000" stroke-width="1"></path><path d="M7.661875 4.927031250000001h1.0996875v1.0925h-1.0996875Z" fill="#000000" stroke-width="1"></path><path d="M6.569375000000001 15.880781249999998h1.0925v1.0925H6.569375000000001Z" fill="#000000" stroke-width="1"></path><path d="M6.569375000000001 6.01953125h1.0925v1.0996875H6.569375000000001Z" fill="#000000" stroke-width="1"></path><path d="M5.476875 14.78109375h1.0925v1.0996875H5.476875Z" fill="#000000" stroke-width="1"></path><path d="M5.476875 7.11921875h1.0925v1.0925H5.476875Z" fill="#000000" stroke-width="1"></path><path d="M5.476875 8.211718750000001h-4.3843749999999995v1.0925H0v4.3843749999999995h1.0925v1.0925h4.3843749999999995Zm-2.1921874999999997 2.1921874999999997H2.1921874999999997v2.1921874999999997H1.0925v-2.1921874999999997h1.0996875v-1.0996875h1.0925Z" fill="#000000" stroke-width="1"></path></g></svg>