<svg xmlns="http://www.w3.org/2000/svg" viewBox="-0.5 -0.5 24 24" id="Business-Money-Coin-Currency--Streamline-Pixel.svg" height="24" width="24"><desc>Business Money Coin Currency Streamline Icon: https://streamlinehq.com</desc><title>business-money-coin-currency</title><g><path d="m13.14234375 4.38078125 2.1921874999999997 0 0 1.0925 1.0925 0 0 1.0996875 1.0996875 0 0 2.1921874999999997 1.0925 0 0 5.4696875 -1.0925 0 0 2.1921874999999997 -1.0996875 0 0 1.0996875 -1.0925 0 0 1.0925 -2.1921874999999997 0 0 1.0925 -5.476875 0 0 1.0996875 7.6690625 0 0 -1.0996875 2.1921874999999997 0 0 -1.0925 1.0925 0 0 -1.0925 1.0996875 0 0 -1.0996875 1.0925 0 0 -2.1921874999999997 1.0925 0 0 -5.4696875 -1.0925 0 0 -2.1921874999999997 -1.0925 0 0 -1.0996875 -1.0996875 0 0 -1.0925 -1.0925 0 0 -1.0925 -2.1921874999999997 0 0 -1.0996875 -7.6690625 0 0 1.0996875 5.476875 0 0 1.0925z" fill="#000000" stroke-width="1"></path><path d="M16.42703125 8.76515625h1.0996875v5.4696875h-1.0996875Z" fill="#000000" stroke-width="1"></path><path d="M15.334531250000001 14.23484375h1.0925v1.0996875h-1.0925Z" fill="#000000" stroke-width="1"></path><path d="M15.334531250000001 7.66546875h1.0925v1.0996875h-1.0925Z" fill="#000000" stroke-width="1"></path><path d="M14.24203125 15.334531250000001h1.0925v1.0925h-1.0925Z" fill="#000000" stroke-width="1"></path><path d="M14.24203125 6.572968749999999h1.0925v1.0925h-1.0925Z" fill="#000000" stroke-width="1"></path><path d="M13.14234375 16.42703125h1.0996875v1.0996875h-1.0996875Z" fill="#000000" stroke-width="1"></path><path d="M13.14234375 5.47328125h1.0996875v1.0996875h-1.0996875Z" fill="#000000" stroke-width="1"></path><path d="M7.66546875 17.52671875h5.476875v1.0925h-5.476875Z" fill="#000000" stroke-width="1"></path><path d="M12.04984375 12.04984375h1.0925v2.185h-1.0925Z" fill="#000000" stroke-width="1"></path><path d="M12.04984375 8.76515625h1.0925v1.0925h-1.0925Z" fill="#000000" stroke-width="1"></path><path d="M7.66546875 4.38078125h5.476875v1.0925h-5.476875Z" fill="#000000" stroke-width="1"></path><path d="m9.85765625 15.334531250000001 0 1.0925 1.0925 0 0 -1.0925 1.0996875 0 0 -1.0996875 -1.0996875 0 0 -2.185 1.0996875 0 0 -1.0996875 -1.0996875 0 0 -2.185 1.0996875 0 0 -1.0996875 -1.0996875 0 0 -1.0925 -1.0925 0 0 1.0925 -1.0925 0 0 1.0996875 1.0925 0 0 2.185 -1.0925 0 0 1.0996875 1.0925 0 0 2.185 -1.0925 0 0 1.0996875 1.0925 0z" fill="#000000" stroke-width="1"></path><path d="M7.66546875 13.14234375h1.0996875v1.0925h-1.0996875Z" fill="#000000" stroke-width="1"></path><path d="M7.66546875 8.76515625h1.0996875v2.185h-1.0996875Z" fill="#000000" stroke-width="1"></path><path d="M5.48046875 18.61921875h2.185v1.0925h-2.185Z" fill="#000000" stroke-width="1"></path><path d="M6.572968749999999 16.42703125h1.0925v1.0996875h-1.0925Z" fill="#000000" stroke-width="1"></path><path d="M6.572968749999999 5.47328125h1.0925v1.0996875h-1.0925Z" fill="#000000" stroke-width="1"></path><path d="M5.48046875 3.2882812500000003h2.185v1.0925h-2.185Z" fill="#000000" stroke-width="1"></path><path d="M5.48046875 15.334531250000001h1.0925v1.0925h-1.0925Z" fill="#000000" stroke-width="1"></path><path d="M5.48046875 6.572968749999999h1.0925v1.0925h-1.0925Z" fill="#000000" stroke-width="1"></path><path d="M4.38078125 17.52671875h1.0996875v1.0925h-1.0996875Z" fill="#000000" stroke-width="1"></path><path d="M4.38078125 14.23484375h1.0996875v1.0996875h-1.0996875Z" fill="#000000" stroke-width="1"></path><path d="M4.38078125 7.66546875h1.0996875v1.0996875h-1.0996875Z" fill="#000000" stroke-width="1"></path><path d="M4.38078125 4.38078125h1.0996875v1.0925h-1.0996875Z" fill="#000000" stroke-width="1"></path><path d="M3.2882812500000003 16.42703125h1.0925v1.0996875h-1.0925Z" fill="#000000" stroke-width="1"></path><path d="M3.2882812500000003 8.76515625h1.0925v5.4696875h-1.0925Z" fill="#000000" stroke-width="1"></path><path d="M3.2882812500000003 5.47328125h1.0925v1.0996875h-1.0925Z" fill="#000000" stroke-width="1"></path><path d="M2.18859375 14.23484375h1.0996875v2.1921874999999997h-1.0996875Z" fill="#000000" stroke-width="1"></path><path d="M2.18859375 6.572968749999999h1.0996875v2.1921874999999997h-1.0996875Z" fill="#000000" stroke-width="1"></path><path d="M1.0960937499999999 8.76515625h1.0925v5.4696875h-1.0925Z" fill="#000000" stroke-width="1"></path></g></svg>