<svg xmlns="http://www.w3.org/2000/svg" viewBox="-0.5 -0.5 24 24" id="Food-Drink-Coffee-Cup--Streamline-Pixel.svg" height="24" width="24"><desc>Food Drink Coffee Cup Streamline Icon: https://streamlinehq.com</desc><title>food-drink-coffee-cup</title><g><path d="M18.6228125 7.6690625H4.3843749999999995V5.476875H3.2846875000000004v3.2846875000000004H4.3843749999999995v6.569375000000001h1.0925v4.3843749999999995h1.0996875v-1.0925h9.854062500000001v1.0925h1.0925v-4.3843749999999995h1.0996875v-6.569375000000001h1.0925V5.476875h-1.0925Zm-2.1921874999999997 9.854062500000001H6.5765625000000005v-1.0925h9.854062500000001Zm0 -3.2846875000000004h-1.0925v1.0925h-1.0996875v-1.0925h-1.0925v1.0925h-1.0996875v-1.0925h-1.0925v1.0925h-1.0925v-1.0925h-1.0996875v1.0925h-1.0925v-1.0925H6.5765625000000005v-1.0925h1.0925v1.0925h1.0925v-1.0925h1.0996875v1.0925h1.0925v-1.0925h1.0925v1.0925h1.0996875v-1.0925h1.0925v1.0925h1.0996875v-1.0925h1.0925Zm1.0925 -2.1921874999999997H5.476875v-1.0925h12.04625Zm0 -2.185H5.476875v-1.0996875h12.04625Z" fill="#000000" stroke-width="1"></path><path d="M14.2384375 0h3.2846875000000004v1.0925h-3.2846875000000004Z" fill="#000000" stroke-width="1"></path><path d="m15.338125 21.9075 -7.6690625 0 0 -2.1921874999999997 -1.0925 0 0 3.2846875000000004 9.854062500000001 0 0 -3.2846875000000004 -1.0925 0 0 2.1921874999999997z" fill="#000000" stroke-width="1"></path><path d="M13.145937499999999 1.0925h1.0925v1.0996875h-1.0925Z" fill="#000000" stroke-width="1"></path><path d="M5.476875 2.1921874999999997h7.6690625v1.0925H5.476875Z" fill="#000000" stroke-width="1"></path><path d="m18.6228125 5.476875 0 -4.3843749999999995 -1.0996875 0 0 3.291875 -12.04625 0 0 -1.0996875 -1.0925 0 0 2.1921874999999997 14.2384375 0z" fill="#000000" stroke-width="1"></path></g></svg>