<svg xmlns="http://www.w3.org/2000/svg" viewBox="-0.5 -0.5 24 24" id="Food-Drink-Hamburger--Streamline-Pixel.svg" height="24" width="24"><desc>Food Drink Hamburger Streamline Icon: https://streamlinehq.com</desc><title>food-drink-hamburger</title><g><path d="m21.9003125 13.692187500000001 -1.0925 0 0 -1.0996875 -1.0996875 0 0 1.0996875 -1.0925 0 0 1.0925 -2.1921874999999997 0 0 -1.0925 -1.0925 0 0 -1.0996875 -3.2846875000000004 0 0 1.0996875 -2.1921874999999997 0 0 1.0925 -3.2846875000000004 0 0 -1.0925 -1.0996875 0 0 -1.0996875 -3.2846875000000004 0 0 1.0996875 -1.0925 0 0 1.0925 1.0925 0 0 3.2846875000000004 1.0996875 0 0 -2.1921874999999997 16.423437500000002 0 0 2.1921874999999997 1.0996875 0 0 -2.1921874999999997 1.0925 0 0 -1.0925 1.0996875 0L23 11.5l-1.0996875 0 0 2.1921874999999997z" fill="#000000" stroke-width="1"></path><path d="M18.615624999999998 18.069375h1.0925v1.0996875H18.615624999999998Z" fill="#000000" stroke-width="1"></path><path d="M18.615624999999998 6.023125h1.0925V7.1156250000000005H18.615624999999998Z" fill="#000000" stroke-width="1"></path><path d="M17.523125 4.930625h1.0925v1.0925h-1.0925Z" fill="#000000" stroke-width="1"></path><path d="M4.3771875 19.169062500000003H18.615624999999998v1.0925H4.3771875Z" fill="#000000" stroke-width="1"></path><path d="M15.3309375 6.023125h1.0925V7.1156250000000005h-1.0925Z" fill="#000000" stroke-width="1"></path><path d="M15.3309375 3.8309375h2.1921874999999997v1.0996875h-2.1921874999999997Z" fill="#000000" stroke-width="1"></path><path d="M13.138750000000002 7.1156250000000005h1.0996875v1.0996875h-1.0996875Z" fill="#000000" stroke-width="1"></path><path d="M13.138750000000002 4.930625h1.0996875v1.0925h-1.0996875Z" fill="#000000" stroke-width="1"></path><path d="M10.9465625 6.023125h1.0996875V7.1156250000000005h-1.0996875Z" fill="#000000" stroke-width="1"></path><path d="M8.7615625 7.1156250000000005h1.0925v1.0996875h-1.0925Z" fill="#000000" stroke-width="1"></path><path d="M8.7615625 4.930625h1.0925v1.0925h-1.0925Z" fill="#000000" stroke-width="1"></path><path d="M7.661875 2.7384375h7.6690625v1.0925H7.661875Z" fill="#000000" stroke-width="1"></path><path d="M6.569375000000001 6.023125h1.0925V7.1156250000000005H6.569375000000001Z" fill="#000000" stroke-width="1"></path><path d="M5.4696875 3.8309375h2.1921874999999997v1.0996875H5.4696875Z" fill="#000000" stroke-width="1"></path><path d="M4.3771875 4.930625h1.0925v1.0925H4.3771875Z" fill="#000000" stroke-width="1"></path><path d="M3.2846875000000004 18.069375h1.0925v1.0996875H3.2846875000000004Z" fill="#000000" stroke-width="1"></path><path d="M3.2846875000000004 6.023125h1.0925V7.1156250000000005H3.2846875000000004Z" fill="#000000" stroke-width="1"></path><path d="m21.9003125 11.5 0 -1.0996875 -1.0925 0 0 -3.2846875000000004 -1.0996875 0 0 3.2846875000000004 -16.423437500000002 0 0 -3.2846875000000004 -1.0996875 0 0 3.2846875000000004 -1.0925 0 0 1.0996875 20.8078125 0z" fill="#000000" stroke-width="1"></path><path d="M0 11.5h1.0925v2.1921874999999997H0Z" fill="#000000" stroke-width="1"></path></g></svg>