<svg xmlns="http://www.w3.org/2000/svg" viewBox="-0.5 -0.5 24 24" id="Hand-Fuck-Middle-Finger--Streamline-Pixel.svg" height="24" width="24"><desc>Hand Fuck Middle Finger Streamline Icon: https://streamlinehq.com</desc><title>hand-fuck-middle-finger</title><g><path d="m19.169062500000003 13.145937499999999 -2.1921874999999997 0 0 1.0925 2.1921874999999997 0 0 3.2846875000000004 1.0925 0 0 -7.6690625 -1.0925 0 0 3.291875z" fill="#000000" stroke-width="1"></path><path d="M18.069375 19.7153125H7.1228125v-1.0925H6.023125v1.0925H4.930625V23h15.3309375v-3.2846875000000004h-1.0925v-2.1921874999999997h-1.0996875Zm0 2.1921874999999997H15.884375v-1.0996875h2.185Z" fill="#000000" stroke-width="1"></path><path d="M18.069375 8.7615625h1.0996875v1.0925h-1.0996875Z" fill="#000000" stroke-width="1"></path><path d="m15.884375 13.145937499999999 1.0925 0 0 -4.3843749999999995 1.0925 0 0 -1.0925 -2.185 0 0 5.476875z" fill="#000000" stroke-width="1"></path><path d="M13.692187500000001 13.145937499999999h2.1921874999999997v1.0925h-2.1921874999999997Z" fill="#000000" stroke-width="1"></path><path d="m12.599687500000002 10.95375 -2.1921874999999997 0 0 1.0925 1.0925 0 0 2.1921874999999997 1.0996875 0 0 -1.0925 1.0925 0 0 -5.476875 2.1921874999999997 0 0 -1.0996875 -2.1921874999999997 0 0 -5.476875 -1.0925 0 0 9.86125z" fill="#000000" stroke-width="1"></path><path d="M10.4075 0h2.1921874999999997v1.0925h-2.1921874999999997Z" fill="#000000" stroke-width="1"></path><path d="M8.2153125 14.2384375H11.5v1.0925h-3.2846875000000004Z" fill="#000000" stroke-width="1"></path><path d="m9.307812499999999 9.854062500000001 -1.0925 0 0 1.0996875 2.1921874999999997 0 0 -9.86125 -1.0996875 0 0 5.476875 -2.185 0 0 1.0996875 2.185 0 0 2.185z" fill="#000000" stroke-width="1"></path><path d="M7.1228125 13.145937499999999h1.0925v1.0925H7.1228125Z" fill="#000000" stroke-width="1"></path><path d="m8.2153125 9.854062500000001 0 -1.0925 -1.0925 0 0 -1.0925 -1.0996875 0 0 1.0925 -1.0925 0 0 1.0925 3.2846875000000004 0z" fill="#000000" stroke-width="1"></path><path d="M4.930625 17.523125h1.0925v1.0996875H4.930625Z" fill="#000000" stroke-width="1"></path><path d="M3.838125 15.3309375h1.0925v2.1921874999999997H3.838125Z" fill="#000000" stroke-width="1"></path><path d="M3.838125 9.854062500000001h1.0925v1.0996875H3.838125Z" fill="#000000" stroke-width="1"></path><path d="M2.7384375 10.95375h1.0996875v4.3771875H2.7384375Z" fill="#000000" stroke-width="1"></path></g></svg>