<svg xmlns="http://www.w3.org/2000/svg" viewBox="-0.5 -0.5 24 24" id="Technology-Drone-Signal--Streamline-Pixel.svg" height="24" width="24"><desc>Technology Drone Signal Streamline Icon: https://streamlinehq.com</desc><title>technology-drone-signal</title><g><path d="m18.615624999999998 7.11921875 0 -1.0996875 -1.0925 0 0 1.0996875 -2.1921874999999997 0 0 -1.0996875 -1.0925 0 0 -1.0925 -5.476875 0 0 1.0925 -1.0996875 0 0 1.0996875 -2.185 0 0 -1.0996875 -1.0996875 0 0 1.0996875 -3.2846875000000004 0 0 -1.0996875 -1.0925 0 0 2.1921874999999997 1.0925 0 0 1.0925 2.1921874999999997 0 0 1.0996875 4.3771875 0 0 -1.0996875 1.0996875 0 0 -1.0925 1.0925 0 0 -1.0925 3.2846875000000004 0 0 1.0925 1.0996875 0 0 1.0925 1.0925 0 0 1.0996875 4.3843749999999995 0 0 -1.0996875 2.185 0 0 -1.0925 1.0996875 0 0 -2.1921874999999997 -1.0996875 0 0 1.0996875 -3.2846875000000004 0z" fill="#000000" stroke-width="1"></path><path d="m20.8078125 1.6423437500000002 -1.0925 0 0 1.0925 -2.1921874999999997 0 0 1.0925 2.1921874999999997 0 0 1.0996875 -1.0996875 0 0 1.0925 3.2846875000000004 0 0 -1.0925 -1.0925 0 0 -1.0996875 2.1921874999999997 0 0 -1.0925 -2.1921874999999997 0 0 -1.0925z" fill="#000000" stroke-width="1"></path><path d="M16.423437500000002 12.58890625h1.0996875v2.1921874999999997h-1.0996875Z" fill="#000000" stroke-width="1"></path><path d="M15.3309375 18.06578125h1.0925v1.0996875h-1.0925Z" fill="#000000" stroke-width="1"></path><path d="M14.2384375 19.16546875h1.0925v1.0925h-1.0925Z" fill="#000000" stroke-width="1"></path><path d="m14.2384375 13.68859375 1.0925 0 0 -1.0996875 1.0925 0 0 -1.0925 -1.0925 0 0 -1.0925 -1.0925 0 0 3.2846875000000004z" fill="#000000" stroke-width="1"></path><path d="M13.138750000000002 16.97328125h1.0996875v1.0925h-1.0996875Z" fill="#000000" stroke-width="1"></path><path d="M13.138750000000002 13.68859375h1.0996875v1.0925h-1.0996875Z" fill="#000000" stroke-width="1"></path><path d="M13.138750000000002 9.30421875h1.0996875v1.0996875h-1.0996875Z" fill="#000000" stroke-width="1"></path><path d="M8.7615625 20.25796875h5.476875v1.0996875h-5.476875Z" fill="#000000" stroke-width="1"></path><path d="M9.854062500000001 14.78109375h3.2846875000000004v1.0996875h-3.2846875000000004Z" fill="#000000" stroke-width="1"></path><path d="M9.854062500000001 10.40390625v3.2846875000000004h3.2846875000000004v-3.2846875000000004Zm2.1921874999999997 2.185h-1.0996875V11.5h1.0996875Z" fill="#000000" stroke-width="1"></path><path d="M9.854062500000001 18.06578125h3.2846875000000004v1.0996875h-3.2846875000000004Z" fill="#000000" stroke-width="1"></path><path d="M9.854062500000001 8.211718750000001h3.2846875000000004v1.0925h-3.2846875000000004Z" fill="#000000" stroke-width="1"></path><path d="M8.7615625 16.97328125h1.0925v1.0925h-1.0925Z" fill="#000000" stroke-width="1"></path><path d="M8.7615625 13.68859375h1.0925v1.0925h-1.0925Z" fill="#000000" stroke-width="1"></path><path d="M8.7615625 9.30421875h1.0925v1.0996875h-1.0925Z" fill="#000000" stroke-width="1"></path><path d="M7.661875 19.16546875h1.0996875v1.0925h-1.0996875Z" fill="#000000" stroke-width="1"></path><path d="m8.7615625 10.40390625 -1.0996875 0 0 1.0925 -1.0925 0 0 1.0925 1.0925 0 0 1.0996875 1.0996875 0 0 -3.2846875000000004z" fill="#000000" stroke-width="1"></path><path d="M6.569375000000001 18.06578125h1.0925v1.0996875H6.569375000000001Z" fill="#000000" stroke-width="1"></path><path d="M5.476875 12.58890625h1.0925v2.1921874999999997H5.476875Z" fill="#000000" stroke-width="1"></path><path d="m4.3771875 6.01953125 0 -1.0925 -1.0925 0 0 -1.0996875 2.1921874999999997 0 0 -1.0925 -2.1921874999999997 0 0 -1.0925 -1.0996875 0 0 1.0925 -2.185 0 0 1.0925 2.185 0 0 1.0996875 -1.0925 0 0 1.0925 3.2846875000000004 0z" fill="#000000" stroke-width="1"></path></g></svg>