<svg xmlns="http://www.w3.org/2000/svg" viewBox="-0.5 -0.5 24 24" id="Interface-Essential-Alert--Streamline-Pixel.svg" height="24" width="24"><desc>Interface Essential Alert Streamline Icon: https://streamlinehq.com</desc><title>interface-essential-alert</title><g><path d="M21.9003125 2.1921874999999997H23v3.2846875000000004h-1.0996875Z" fill="#000000" stroke-width="1"></path><path d="M20.8078125 5.476875h1.0925v1.0925h-1.0925Z" fill="#000000" stroke-width="1"></path><path d="M20.8078125 1.0925h1.0925v1.0996875h-1.0925Z" fill="#000000" stroke-width="1"></path><path d="M19.7153125 9.854062500000001h1.0925v5.476875h-1.0925Z" fill="#000000" stroke-width="1"></path><path d="M19.7153125 4.3843749999999995h1.0925v1.0925h-1.0925Z" fill="#000000" stroke-width="1"></path><path d="M18.615624999999998 21.9075h1.0996875V23H18.615624999999998Z" fill="#000000" stroke-width="1"></path><path d="M18.615624999999998 15.3309375h1.0996875v2.1921874999999997H18.615624999999998Z" fill="#000000" stroke-width="1"></path><path d="M18.615624999999998 7.6690625h1.0996875v2.185H18.615624999999998Z" fill="#000000" stroke-width="1"></path><path d="M18.615624999999998 3.2846875000000004h1.0996875V4.3843749999999995H18.615624999999998Z" fill="#000000" stroke-width="1"></path><path d="M17.523125 0h3.2846875000000004v1.0925h-3.2846875000000004Z" fill="#000000" stroke-width="1"></path><path d="M17.523125 20.8078125h1.0925v1.0996875h-1.0925Z" fill="#000000" stroke-width="1"></path><path d="M17.523125 17.523125h1.0925v1.0925h-1.0925Z" fill="#000000" stroke-width="1"></path><path d="M17.523125 12.04625h1.0925v1.0996875h-1.0925Z" fill="#000000" stroke-width="1"></path><path d="M17.523125 6.569375000000001h1.0925v1.0996875h-1.0925Z" fill="#000000" stroke-width="1"></path><path d="M17.523125 2.1921874999999997h1.0925v1.0925h-1.0925Z" fill="#000000" stroke-width="1"></path><path d="m16.423437500000002 19.7153125 -2.185 0 0 1.0925 3.2846875000000004 0 0 -2.1921874999999997 -1.0996875 0 0 1.0996875z" fill="#000000" stroke-width="1"></path><path d="M16.423437500000002 5.476875h1.0996875v1.0925h-1.0996875Z" fill="#000000" stroke-width="1"></path><path d="M16.423437500000002 1.0925h1.0996875v1.0996875h-1.0996875Z" fill="#000000" stroke-width="1"></path><path d="M15.3309375 16.430625h1.0925v1.0925h-1.0925Z" fill="#000000" stroke-width="1"></path><path d="M15.3309375 7.6690625h1.0925v1.0925h-1.0925Z" fill="#000000" stroke-width="1"></path><path d="m15.3309375 12.04625 -2.1921874999999997 0 0 -1.0925 -1.0925 0 0 -3.2846875000000004 -1.0925 0 0 3.2846875000000004 -1.0996875 0 0 3.2846875000000004 3.2846875000000004 0 0 -1.0925 2.1921874999999997 0 0 -1.0996875z" fill="#000000" stroke-width="1"></path><path d="M14.2384375 4.3843749999999995h2.185v1.0925h-2.185Z" fill="#000000" stroke-width="1"></path><path d="M8.7615625 20.8078125h5.476875v1.0996875h-5.476875Z" fill="#000000" stroke-width="1"></path><path d="M10.95375 18.615624999999998h1.0925v1.0996875h-1.0925Z" fill="#000000" stroke-width="1"></path><path d="M10.95375 5.476875h1.0925v1.0925h-1.0925Z" fill="#000000" stroke-width="1"></path><path d="M8.7615625 3.2846875000000004h5.476875V4.3843749999999995h-5.476875Z" fill="#000000" stroke-width="1"></path><path d="m6.569375000000001 19.7153125 0 -1.0996875 -1.0925 0 0 2.1921874999999997 3.2846875000000004 0 0 -1.0925 -2.1921874999999997 0z" fill="#000000" stroke-width="1"></path><path d="M6.569375000000001 4.3843749999999995h2.1921874999999997v1.0925H6.569375000000001Z" fill="#000000" stroke-width="1"></path><path d="M6.569375000000001 16.430625h1.0925v1.0925H6.569375000000001Z" fill="#000000" stroke-width="1"></path><path d="M6.569375000000001 7.6690625h1.0925v1.0925H6.569375000000001Z" fill="#000000" stroke-width="1"></path><path d="M5.476875 5.476875h1.0925v1.0925H5.476875Z" fill="#000000" stroke-width="1"></path><path d="M5.476875 1.0925h1.0925v1.0996875H5.476875Z" fill="#000000" stroke-width="1"></path><path d="M4.3771875 20.8078125h1.0996875v1.0996875H4.3771875Z" fill="#000000" stroke-width="1"></path><path d="M4.3771875 17.523125h1.0996875v1.0925H4.3771875Z" fill="#000000" stroke-width="1"></path><path d="M4.3771875 12.04625h1.0996875v1.0996875H4.3771875Z" fill="#000000" stroke-width="1"></path><path d="M4.3771875 6.569375000000001h1.0996875v1.0996875H4.3771875Z" fill="#000000" stroke-width="1"></path><path d="M4.3771875 2.1921874999999997h1.0996875v1.0925H4.3771875Z" fill="#000000" stroke-width="1"></path><path d="M3.2846875000000004 21.9075h1.0925V23H3.2846875000000004Z" fill="#000000" stroke-width="1"></path><path d="M3.2846875000000004 15.3309375h1.0925v2.1921874999999997H3.2846875000000004Z" fill="#000000" stroke-width="1"></path><path d="M3.2846875000000004 7.6690625h1.0925v2.185H3.2846875000000004Z" fill="#000000" stroke-width="1"></path><path d="M3.2846875000000004 3.2846875000000004h1.0925V4.3843749999999995H3.2846875000000004Z" fill="#000000" stroke-width="1"></path><path d="M2.1921874999999997 0h3.2846875000000004v1.0925H2.1921874999999997Z" fill="#000000" stroke-width="1"></path><path d="M2.1921874999999997 9.854062500000001h1.0925v5.476875H2.1921874999999997Z" fill="#000000" stroke-width="1"></path><path d="M2.1921874999999997 4.3843749999999995h1.0925v1.0925H2.1921874999999997Z" fill="#000000" stroke-width="1"></path><path d="M1.0925 5.476875h1.0996875v1.0925H1.0925Z" fill="#000000" stroke-width="1"></path><path d="M1.0925 1.0925h1.0996875v1.0996875H1.0925Z" fill="#000000" stroke-width="1"></path><path d="M0 2.1921874999999997h1.0925v3.2846875000000004H0Z" fill="#000000" stroke-width="1"></path></g></svg>