<svg xmlns="http://www.w3.org/2000/svg" viewBox="-0.5 -0.5 24 24" id="Interface-Essential-Light-Bulb--Streamline-Pixel.svg" height="24" width="24"><desc>Interface Essential Light Bulb Streamline Icon: https://streamlinehq.com</desc><title>interface-essential-light-bulb</title><g><path d="M19.7153125 4.3843749999999995h1.0925v8.7615625h-1.0925Z" fill="#000000" stroke-width="1"></path><path d="M18.615624999999998 13.145937499999999h1.0996875v1.0925H18.615624999999998Z" fill="#000000" stroke-width="1"></path><path d="M18.615624999999998 3.2846875000000004h1.0996875V4.3843749999999995H18.615624999999998Z" fill="#000000" stroke-width="1"></path><path d="M17.523125 14.2384375h1.0925v1.0925h-1.0925Z" fill="#000000" stroke-width="1"></path><path d="M17.523125 2.1921874999999997h1.0925v1.0925h-1.0925Z" fill="#000000" stroke-width="1"></path><path d="M16.423437500000002 15.3309375h1.0996875v1.0996875h-1.0996875Z" fill="#000000" stroke-width="1"></path><path d="M16.423437500000002 1.0925h1.0996875v1.0996875h-1.0996875Z" fill="#000000" stroke-width="1"></path><path d="M13.138750000000002 16.430625v-4.3843749999999995h-1.0925v4.3843749999999995h-1.0925v-4.3843749999999995h-1.0996875v4.3843749999999995H6.569375000000001v1.0925h1.0925v4.3843749999999995h1.0996875v-1.0996875h5.476875v1.0996875h1.0925v-4.3843749999999995h1.0925v-1.0925Zm1.0996875 2.185h-5.476875v-1.0925h5.476875Z" fill="#000000" stroke-width="1"></path><path d="M14.2384375 7.6690625h1.0925v2.185h-1.0925Z" fill="#000000" stroke-width="1"></path><path d="M13.138750000000002 9.854062500000001h1.0996875v2.1921874999999997h-1.0996875Z" fill="#000000" stroke-width="1"></path><path d="M8.7615625 21.9075h5.476875V23h-5.476875Z" fill="#000000" stroke-width="1"></path><path d="M8.7615625 9.854062500000001h1.0925v2.1921874999999997h-1.0925Z" fill="#000000" stroke-width="1"></path><path d="M7.661875 7.6690625h1.0996875v2.185h-1.0996875Z" fill="#000000" stroke-width="1"></path><path d="M6.569375000000001 0h9.854062500000001v1.0925H6.569375000000001Z" fill="#000000" stroke-width="1"></path><path d="M5.476875 15.3309375h1.0925v1.0996875H5.476875Z" fill="#000000" stroke-width="1"></path><path d="M5.476875 1.0925h1.0925v1.0996875H5.476875Z" fill="#000000" stroke-width="1"></path><path d="M4.3771875 14.2384375h1.0996875v1.0925H4.3771875Z" fill="#000000" stroke-width="1"></path><path d="M4.3771875 2.1921874999999997h1.0996875v1.0925H4.3771875Z" fill="#000000" stroke-width="1"></path><path d="M3.2846875000000004 13.145937499999999h1.0925v1.0925H3.2846875000000004Z" fill="#000000" stroke-width="1"></path><path d="M3.2846875000000004 3.2846875000000004h1.0925V4.3843749999999995H3.2846875000000004Z" fill="#000000" stroke-width="1"></path><path d="M2.1921874999999997 4.3843749999999995h1.0925v8.7615625H2.1921874999999997Z" fill="#000000" stroke-width="1"></path></g></svg>