<svg xmlns="http://www.w3.org/2000/svg" viewBox="-0.5 -0.5 24 24" id="Interface-Essential-Note-Music--Streamline-Pixel.svg" height="24" width="24"><desc>Interface Essential Note Music Streamline Icon: https://streamlinehq.com</desc><title>interface-essential-note-music</title><g><path d="m20.25796875 4.930625 -2.1921874999999997 0 0 1.0925 2.1921874999999997 0 0 8.7615625 -2.1921874999999997 0 0 1.0996875 -1.0925 0 0 2.185 1.0925 0 0 1.0996875 2.1921874999999997 0 0 -1.0996875 1.0996875 0 0 -17.523125 -3.291875 0 0 1.0996875 2.1921874999999997 0 0 3.2846875000000004z" fill="#000000" stroke-width="1"></path><path d="M14.78109375 6.023125h3.2846875000000004v1.0996875h-3.2846875000000004Z" fill="#000000" stroke-width="1"></path><path d="M14.78109375 1.6459375h3.2846875000000004v1.0925h-3.2846875000000004Z" fill="#000000" stroke-width="1"></path><path d="M11.49640625 7.1228125h3.2846875000000004v1.0925h-3.2846875000000004Z" fill="#000000" stroke-width="1"></path><path d="M11.49640625 2.7384375h3.2846875000000004v1.0996875h-3.2846875000000004Z" fill="#000000" stroke-width="1"></path><path d="M8.211718750000001 8.2153125h3.2846875000000004v1.0925h-3.2846875000000004Z" fill="#000000" stroke-width="1"></path><path d="M8.211718750000001 3.838125h3.2846875000000004v1.0925h-3.2846875000000004Z" fill="#000000" stroke-width="1"></path><path d="m2.73484375 22.45375 2.1921874999999997 0 0 -1.0925 1.0925 0 0 -10.95375 2.1921874999999997 0 0 -1.0996875 -2.1921874999999997 0 0 -3.2846875000000004 2.1921874999999997 0 0 -1.0925 -3.2846875000000004 0 0 13.138750000000002 -2.1921874999999997 0 0 1.0996875 -1.0925 0 0 2.1921874999999997 1.0925 0 0 1.0925z" fill="#000000" stroke-width="1"></path></g></svg>