<svg xmlns="http://www.w3.org/2000/svg" viewBox="-0.5 -0.5 24 24" id="Interface-Essential-Pencil-Edit-2--Streamline-Pixel.svg" height="24" width="24"><desc>Interface Essential Pencil Edit 2 Streamline Icon: https://streamlinehq.com</desc><title>interface-essential-pencil-edit-2</title><g><path d="M21.9003125 4.3843749999999995H23v3.2846875000000004h-1.0996875Z" fill="#000000" stroke-width="1"></path><path d="M20.8078125 7.6690625h1.0925v1.0925h-1.0925Z" fill="#000000" stroke-width="1"></path><path d="M20.8078125 3.2846875000000004h1.0925V4.3843749999999995h-1.0925Z" fill="#000000" stroke-width="1"></path><path d="M19.7153125 8.7615625h1.0925v1.0925h-1.0925Z" fill="#000000" stroke-width="1"></path><path d="M19.7153125 2.1921874999999997h1.0925v1.0925h-1.0925Z" fill="#000000" stroke-width="1"></path><path d="M18.615624999999998 9.854062500000001h1.0996875v1.0996875H18.615624999999998Z" fill="#000000" stroke-width="1"></path><path d="M18.615624999999998 7.6690625h1.0996875v1.0925H18.615624999999998Z" fill="#000000" stroke-width="1"></path><path d="M18.615624999999998 1.0925h1.0996875v1.0996875H18.615624999999998Z" fill="#000000" stroke-width="1"></path><path d="M17.523125 10.95375h1.0925v1.0925h-1.0925Z" fill="#000000" stroke-width="1"></path><path d="M17.523125 6.569375000000001h1.0925v1.0996875h-1.0925Z" fill="#000000" stroke-width="1"></path><path d="M16.423437500000002 12.04625h1.0996875v1.0996875h-1.0996875Z" fill="#000000" stroke-width="1"></path><path d="M16.423437500000002 7.6690625h1.0996875v1.0925h-1.0996875Z" fill="#000000" stroke-width="1"></path><path d="M16.423437500000002 5.476875h1.0996875v1.0925h-1.0996875Z" fill="#000000" stroke-width="1"></path><path d="M15.3309375 0h3.2846875000000004v1.0925h-3.2846875000000004Z" fill="#000000" stroke-width="1"></path><path d="M15.3309375 13.145937499999999h1.0925v1.0925h-1.0925Z" fill="#000000" stroke-width="1"></path><path d="M15.3309375 8.7615625h1.0925v1.0925h-1.0925Z" fill="#000000" stroke-width="1"></path><path d="M15.3309375 4.3843749999999995h1.0925v1.0925h-1.0925Z" fill="#000000" stroke-width="1"></path><path d="M14.2384375 14.2384375h1.0925v1.0925h-1.0925Z" fill="#000000" stroke-width="1"></path><path d="M14.2384375 9.854062500000001h1.0925v1.0996875h-1.0925Z" fill="#000000" stroke-width="1"></path><path d="M14.2384375 5.476875h1.0925v1.0925h-1.0925Z" fill="#000000" stroke-width="1"></path><path d="M14.2384375 3.2846875000000004h1.0925V4.3843749999999995h-1.0925Z" fill="#000000" stroke-width="1"></path><path d="M14.2384375 1.0925h1.0925v1.0996875h-1.0925Z" fill="#000000" stroke-width="1"></path><path d="M13.138750000000002 15.3309375h1.0996875v1.0996875h-1.0996875Z" fill="#000000" stroke-width="1"></path><path d="M13.138750000000002 10.95375h1.0996875v1.0925h-1.0996875Z" fill="#000000" stroke-width="1"></path><path d="M13.138750000000002 6.569375000000001h1.0996875v1.0996875h-1.0996875Z" fill="#000000" stroke-width="1"></path><path d="M13.138750000000002 2.1921874999999997h1.0996875v1.0925h-1.0996875Z" fill="#000000" stroke-width="1"></path><path d="M12.04625 16.430625h1.0925v1.0925h-1.0925Z" fill="#000000" stroke-width="1"></path><path d="M12.04625 12.04625h1.0925v1.0996875h-1.0925Z" fill="#000000" stroke-width="1"></path><path d="M12.04625 7.6690625h1.0925v1.0925h-1.0925Z" fill="#000000" stroke-width="1"></path><path d="M12.04625 3.2846875000000004h1.0925V4.3843749999999995h-1.0925Z" fill="#000000" stroke-width="1"></path><path d="M10.95375 17.523125h1.0925v1.0925h-1.0925Z" fill="#000000" stroke-width="1"></path><path d="M10.95375 13.145937499999999h1.0925v1.0925h-1.0925Z" fill="#000000" stroke-width="1"></path><path d="M10.95375 8.7615625h1.0925v1.0925h-1.0925Z" fill="#000000" stroke-width="1"></path><path d="M10.95375 4.3843749999999995h1.0925v1.0925h-1.0925Z" fill="#000000" stroke-width="1"></path><path d="M9.854062500000001 18.615624999999998h1.0996875v1.0996875h-1.0996875Z" fill="#000000" stroke-width="1"></path><path d="M9.854062500000001 14.2384375h1.0996875v1.0925h-1.0996875Z" fill="#000000" stroke-width="1"></path><path d="M9.854062500000001 9.854062500000001h1.0996875v1.0996875h-1.0996875Z" fill="#000000" stroke-width="1"></path><path d="M9.854062500000001 5.476875h1.0996875v1.0925h-1.0996875Z" fill="#000000" stroke-width="1"></path><path d="M8.7615625 19.7153125h1.0925v1.0925h-1.0925Z" fill="#000000" stroke-width="1"></path><path d="M8.7615625 15.3309375h1.0925v1.0996875h-1.0925Z" fill="#000000" stroke-width="1"></path><path d="M8.7615625 10.95375h1.0925v1.0925h-1.0925Z" fill="#000000" stroke-width="1"></path><path d="M8.7615625 6.569375000000001h1.0925v1.0996875h-1.0925Z" fill="#000000" stroke-width="1"></path><path d="M7.661875 16.430625h1.0996875v1.0925h-1.0996875Z" fill="#000000" stroke-width="1"></path><path d="M7.661875 12.04625h1.0996875v1.0996875h-1.0996875Z" fill="#000000" stroke-width="1"></path><path d="M7.661875 7.6690625h1.0996875v1.0925h-1.0996875Z" fill="#000000" stroke-width="1"></path><path d="M7.661875 21.9075h1.0996875v-1.0996875h-1.0996875v-3.2846875000000004H5.476875v-2.1921874999999997H2.1921874999999997v-1.0925H1.0925v1.0925H0V23h7.661875Zm-1.0925 0H3.2846875000000004v-1.0996875H2.1921874999999997v-1.0925H1.0925v-3.2846875000000004h3.2846875000000004v2.185h2.1921874999999997Z" fill="#000000" stroke-width="1"></path><path d="M6.569375000000001 13.145937499999999h1.0925v1.0925H6.569375000000001Z" fill="#000000" stroke-width="1"></path><path d="M6.569375000000001 8.7615625h1.0925v1.0925H6.569375000000001Z" fill="#000000" stroke-width="1"></path><path d="M5.476875 14.2384375h1.0925v1.0925H5.476875Z" fill="#000000" stroke-width="1"></path><path d="M5.476875 9.854062500000001h1.0925v1.0996875H5.476875Z" fill="#000000" stroke-width="1"></path><path d="M4.3771875 10.95375h1.0996875v1.0925H4.3771875Z" fill="#000000" stroke-width="1"></path><path d="M3.2846875000000004 12.04625h1.0925v1.0996875H3.2846875000000004Z" fill="#000000" stroke-width="1"></path><path d="M2.1921874999999997 13.145937499999999h1.0925v1.0925H2.1921874999999997Z" fill="#000000" stroke-width="1"></path></g></svg>