<svg xmlns="http://www.w3.org/2000/svg" viewBox="-0.5 -0.5 24 24" id="Interface-Essential-Skull-1--Streamline-Pixel.svg" height="24" width="24"><desc>Interface Essential Skull 1 Streamline Icon: https://streamlinehq.com</desc><title>interface-essential-skull-1</title><g><path d="M20.811406249999997 4.930625h1.0925v9.854062500000001h-1.0925Z" fill="#000000" stroke-width="1"></path><path d="M19.71890625 14.7846875h1.0925v1.0925h-1.0925Z" fill="#000000" stroke-width="1"></path><path d="M19.71890625 3.8309375h1.0925v1.0996875h-1.0925Z" fill="#000000" stroke-width="1"></path><path d="M18.61921875 15.8771875h1.0996875v1.0996875h-1.0996875Z" fill="#000000" stroke-width="1"></path><path d="M18.61921875 2.7384375h1.0996875v1.0925h-1.0996875Z" fill="#000000" stroke-width="1"></path><path d="M17.52671875 16.976875h1.0925v4.3771875h-1.0925Z" fill="#000000" stroke-width="1"></path><path d="m17.52671875 9.307812499999999 -2.1921874999999997 0 0 1.0925 -1.0925 0 0 2.1921874999999997 1.0925 0 0 1.0996875 2.1921874999999997 0 0 -1.0996875 1.0925 0 0 -2.1921874999999997 -1.0925 0 0 -1.0925z" fill="#000000" stroke-width="1"></path><path d="M16.42703125 1.63875h2.1921874999999997v1.0996875h-2.1921874999999997Z" fill="#000000" stroke-width="1"></path><path d="M14.24203125 21.3540625h3.2846875000000004v1.0996875h-3.2846875000000004Z" fill="#000000" stroke-width="1"></path><path d="M13.14234375 18.069375h1.0996875v3.2846875000000004h-1.0996875Z" fill="#000000" stroke-width="1"></path><path d="M9.85765625 21.3540625h3.2846875000000004v1.0996875h-3.2846875000000004Z" fill="#000000" stroke-width="1"></path><path d="M9.85765625 14.7846875h3.2846875000000004v1.0925h-3.2846875000000004Z" fill="#000000" stroke-width="1"></path><path d="M8.76515625 18.069375h1.0925v3.2846875000000004h-1.0925Z" fill="#000000" stroke-width="1"></path><path d="M6.572968749999999 0.54625h9.854062500000001v1.0925H6.572968749999999Z" fill="#000000" stroke-width="1"></path><path d="M5.48046875 21.3540625h3.2846875000000004v1.0996875h-3.2846875000000004Z" fill="#000000" stroke-width="1"></path><path d="m7.66546875 9.307812499999999 -2.185 0 0 1.0925 -1.0996875 0 0 2.1921874999999997 1.0996875 0 0 1.0996875 2.185 0 0 -1.0996875 1.0996875 0 0 -2.1921874999999997 -1.0996875 0 0 -1.0925z" fill="#000000" stroke-width="1"></path><path d="M4.38078125 1.63875h2.1921874999999997v1.0996875h-2.1921874999999997Z" fill="#000000" stroke-width="1"></path><path d="M4.38078125 16.976875h1.0996875v4.3771875h-1.0996875Z" fill="#000000" stroke-width="1"></path><path d="M3.2882812500000003 15.8771875h1.0925v1.0996875h-1.0925Z" fill="#000000" stroke-width="1"></path><path d="M3.2882812500000003 2.7384375h1.0925v1.0925h-1.0925Z" fill="#000000" stroke-width="1"></path><path d="M2.19578125 14.7846875h1.0925v1.0925h-1.0925Z" fill="#000000" stroke-width="1"></path><path d="M2.19578125 3.8309375h1.0925v1.0996875h-1.0925Z" fill="#000000" stroke-width="1"></path><path d="M1.0960937499999999 4.930625h1.0996875v9.854062500000001h-1.0996875Z" fill="#000000" stroke-width="1"></path></g></svg>