<svg xmlns="http://www.w3.org/2000/svg" viewBox="-0.5 -0.5 24 24" id="Interface-Essential-Skull-2--Streamline-Pixel.svg" height="24" width="24"><desc>Interface Essential Skull 2 Streamline Icon: https://streamlinehq.com</desc><title>interface-essential-skull-2</title><g><path d="m16.97328125 6.023125 0 2.1921874999999997 1.0996875 0 0 -2.1921874999999997 1.0925 0 0 -1.0996875 1.0925 0 0 -1.0925 2.1921874999999997 0 0 -2.1921874999999997 -1.0925 0 0 -1.0925 -2.1921874999999997 0 0 2.1921874999999997 -1.0925 0 0 1.0925 -1.0996875 0 0 1.0925 -2.185 0 0 1.0996875 2.185 0z" fill="#000000" stroke-width="1"></path><path d="M19.16546875 10.4003125h1.0925v4.3843749999999995h-1.0925Z" fill="#000000" stroke-width="1"></path><path d="M18.07296875 14.7846875h1.0925v1.0925h-1.0925Z" fill="#000000" stroke-width="1"></path><path d="M18.07296875 8.2153125h1.0925v2.185h-1.0925Z" fill="#000000" stroke-width="1"></path><path d="m16.97328125 16.976875 -1.0925 0 0 3.2846875000000004 1.0925 0 0 -1.0996875 1.0996875 0 0 1.0996875 1.0925 0 0 2.1921874999999997 2.1921874999999997 0 0 -1.0996875 1.0925 0 0 -2.1921874999999997 -2.1921874999999997 0 0 -1.0925 -1.0925 0 0 -1.0925 -1.0925 0 0 -1.0996875 -1.0996875 0 0 1.0996875z" fill="#000000" stroke-width="1"></path><path d="m13.68859375 12.5925 2.1921874999999997 0 0 -1.0925 1.0925 0 0 -2.1921874999999997 -1.0925 0 0 -1.0925 -2.1921874999999997 0 0 1.0925 -1.0925 0 0 2.1921874999999997 1.0925 0 0 1.0925z" fill="#000000" stroke-width="1"></path><path d="m13.68859375 18.069375 -1.0925 0 0 2.1921874999999997 -2.1921874999999997 0 0 -2.1921874999999997 -1.0925 0 0 2.1921874999999997 -2.1921874999999997 0 0 1.0925 8.7615625 0 0 -1.0925 -2.1921874999999997 0 0 -2.1921874999999997z" fill="#000000" stroke-width="1"></path><path d="M10.40390625 13.684999999999999h2.1921874999999997v1.0996875h-2.1921874999999997Z" fill="#000000" stroke-width="1"></path><path d="m7.11921875 12.5925 2.1921874999999997 0 0 -1.0925 1.0925 0 0 -2.1921874999999997 -1.0925 0 0 -1.0925 -2.1921874999999997 0 0 1.0925 -1.0925 0 0 2.1921874999999997 1.0925 0 0 1.0925z" fill="#000000" stroke-width="1"></path><path d="M8.211718750000001 3.8309375h6.5765625000000005v1.0925h-6.5765625000000005Z" fill="#000000" stroke-width="1"></path><path d="m3.83453125 16.976875 0 1.0925 -1.0996875 0 0 1.0925 -2.185 0 0 2.1921874999999997 1.0925 0 0 1.0996875 2.1921874999999997 0 0 -2.1921874999999997 1.0925 0 0 -1.0996875 1.0996875 0 0 1.0996875 1.0925 0 0 -3.2846875000000004 -1.0925 0 0 -1.0996875 -1.0996875 0 0 1.0996875 -1.0925 0z" fill="#000000" stroke-width="1"></path><path d="m6.02671875 6.023125 2.185 0 0 -1.0996875 -2.185 0 0 -1.0925 -1.0996875 0 0 -1.0925 -1.0925 0 0 -2.1921874999999997 -2.1921874999999997 0 0 1.0925 -1.0925 0 0 2.1921874999999997 2.185 0 0 1.0925 1.0996875 0 0 1.0996875 1.0925 0 0 2.1921874999999997 1.0996875 0 0 -2.1921874999999997z" fill="#000000" stroke-width="1"></path><path d="M3.83453125 14.7846875h1.0925v1.0925h-1.0925Z" fill="#000000" stroke-width="1"></path><path d="M3.83453125 8.2153125h1.0925v2.185h-1.0925Z" fill="#000000" stroke-width="1"></path><path d="M2.73484375 10.4003125h1.0996875v4.3843749999999995h-1.0996875Z" fill="#000000" stroke-width="1"></path></g></svg>