<svg xmlns="http://www.w3.org/2000/svg" viewBox="-0.5 -0.5 24 24" id="Money-Payments-Cash-Payment-Coin--Streamline-Pixel.svg" height="24" width="24"><desc>Money Payments Cash Payment Coin Streamline Icon: https://streamlinehq.com</desc><title>money-payments-cash-payment-coin</title><g><path d="M5.476875 21.35765625h8.7615625v1.0925H5.476875Z" fill="#000000" stroke-width="1"></path><path d="M14.2384375 20.26515625h3.2846875000000004v1.0925h-3.2846875000000004Z" fill="#000000" stroke-width="1"></path><path d="m10.95375 19.16546875 0 -1.0925 -7.6690625 0 0 1.0925 1.0996875 0 0 2.1921874999999997 1.0925 0 0 -2.1921874999999997 5.476875 0z" fill="#000000" stroke-width="1"></path><path d="m8.7615625 15.880781249999998 0 -1.0925 -7.661875 0 0 1.0925 1.0925 0 0 2.1921874999999997 1.0925 0 0 -2.1921874999999997 5.476875 0z" fill="#000000" stroke-width="1"></path><path d="M0 12.59609375h1.0996875v2.1921874999999997H0Z" fill="#000000" stroke-width="1"></path><path d="M12.04625 11.503593749999999h1.0996875v1.0925h-1.0996875Z" fill="#000000" stroke-width="1"></path><path d="M3.2846875000000004 11.503593749999999h4.3843749999999995v1.0925h-4.3843749999999995Z" fill="#000000" stroke-width="1"></path><path d="M10.95375 9.31140625h1.0925v2.1921874999999997h-1.0925Z" fill="#000000" stroke-width="1"></path><path d="M7.6690625 10.40390625h1.0925v1.0996875h-1.0925Z" fill="#000000" stroke-width="1"></path><path d="M2.1921874999999997 10.40390625h1.0925v1.0996875H2.1921874999999997Z" fill="#000000" stroke-width="1"></path><path d="m5.476875 10.40390625 0 -1.0925 1.0925 0 0 -1.0996875 -3.2846875000000004 0 0 1.0996875 1.0996875 0 0 1.0925 1.0925 0z" fill="#000000" stroke-width="1"></path><path d="M1.0996875 9.31140625h1.0925v1.0925H1.0996875Z" fill="#000000" stroke-width="1"></path><path d="M9.86125 7.11921875h1.0925v2.1921874999999997h-1.0925Z" fill="#000000" stroke-width="1"></path><path d="M0 3.83453125h1.0996875v5.476875H0Z" fill="#000000" stroke-width="1"></path><path d="M19.7153125 7.1156250000000005v1.0925h-1.0925v1.0996875h1.0925v9.854062500000001h-2.1921874999999997v1.106875h2.1921874999999997v1.0925H23V7.1156250000000005Zm2.1921874999999997 12.04625h-1.0996875v-2.1921874999999997h1.0996875Z" fill="#000000" stroke-width="1"></path><path d="M17.523125 7.11921875h1.0996875v1.0925h-1.0996875Z" fill="#000000" stroke-width="1"></path><path d="M6.569375000000001 7.11921875h1.0996875v1.0925H6.569375000000001Z" fill="#000000" stroke-width="1"></path><path d="M15.338125 6.02671875h2.185v1.0925h-2.185Z" fill="#000000" stroke-width="1"></path><path d="M8.7615625 6.02671875h1.0996875v1.0925h-1.0996875Z" fill="#000000" stroke-width="1"></path><path d="M3.2846875000000004 6.02671875h3.2846875000000004v1.0925H3.2846875000000004Z" fill="#000000" stroke-width="1"></path><path d="M14.2384375 4.927031250000001h1.0996875v1.0996875h-1.0996875Z" fill="#000000" stroke-width="1"></path><path d="M2.1921874999999997 4.927031250000001h1.0925v1.0996875H2.1921874999999997Z" fill="#000000" stroke-width="1"></path><path d="M13.145937499999999 3.83453125h1.0925v1.0925h-1.0925Z" fill="#000000" stroke-width="1"></path><path d="m6.569375000000001 4.927031250000001 0 -1.0925 -1.0925 0 0 -1.0925 -1.0925 0 0 1.0925 -1.0996875 0 0 1.0925 3.2846875000000004 0z" fill="#000000" stroke-width="1"></path><path d="M12.04625 2.74203125h1.0996875v1.0925h-1.0996875Z" fill="#000000" stroke-width="1"></path><path d="M7.6690625 2.74203125h1.0925v3.2846875000000004h-1.0925Z" fill="#000000" stroke-width="1"></path><path d="M1.0996875 2.74203125h1.0925v1.0925H1.0996875Z" fill="#000000" stroke-width="1"></path><path d="M8.7615625 1.6423437500000002h3.2846875000000004v1.0996875h-3.2846875000000004Z" fill="#000000" stroke-width="1"></path><path d="M2.1921874999999997 1.6423437500000002h1.0925v1.0996875H2.1921874999999997Z" fill="#000000" stroke-width="1"></path><path d="M3.2846875000000004 0.54984375h4.3843749999999995v1.0925h-4.3843749999999995Z" fill="#000000" stroke-width="1"></path></g></svg>