<svg xmlns="http://www.w3.org/2000/svg" viewBox="-0.5 -0.5 24 24" id="Business-Prodect-Diamond--Streamline-Pixel.svg" height="24" width="24"><desc>Business Prodect Diamond Streamline Icon: https://streamlinehq.com</desc><title>business-prodect-diamond</title><g><path d="M21.9003125 15.3309375H23v1.0996875h-1.0996875Z" fill="#000000" stroke-width="1"></path><path d="M21.9003125 9.86125h-4.3771875v-4.3843749999999995h1.0925V4.3843749999999995h-1.0925V3.2846875000000004H5.476875V4.3843749999999995H4.3771875v1.0925H3.2846875000000004v1.0925H2.1921874999999997v1.0996875H1.0925v1.0925H0v3.2846875000000004h1.0925v-1.0925h5.476875v2.1921874999999997h1.0925v2.185h1.0996875v2.1921874999999997h1.0925v2.1921874999999997h1.0996875V10.95375h4.3771875v2.1921874999999997h-1.0925v2.185h-1.0996875v2.1921874999999997h-1.0925v2.1921874999999997h-1.0925v1.0925h-1.0996875v1.0996875h1.0996875V23h1.0925v-1.0925h1.0925v-1.0996875h1.0996875v-1.0925h1.0925v-1.0925h1.0996875v-1.0996875h1.0925v-1.0925h1.0925v-1.0996875h1.0996875v-1.0925h1.0925v-1.0925h1.0925v-1.0996875H23v-3.2846875000000004h-1.0996875Zm-6.569375000000001 0H7.661875v-1.0996875H6.569375000000001V4.3843749999999995h4.3843749999999995v1.0925h1.0925v1.0925h1.0925v1.0996875h1.0996875v1.0925h1.0925Z" fill="#000000" stroke-width="1"></path><path d="M20.8078125 18.6228125h1.0925v1.0925h-1.0925Z" fill="#000000" stroke-width="1"></path><path d="M20.8078125 7.6690625h1.0925v1.0925h-1.0925Z" fill="#000000" stroke-width="1"></path><path d="M19.7153125 19.7153125h1.0925v1.0925h-1.0925Z" fill="#000000" stroke-width="1"></path><path d="M19.7153125 17.523125h1.0925v1.0996875h-1.0925Z" fill="#000000" stroke-width="1"></path><path d="M19.7153125 6.569375000000001h1.0925v1.0996875h-1.0925Z" fill="#000000" stroke-width="1"></path><path d="m19.7153125 2.1921874999999997 -1.0996875 0 0 1.0925 1.0996875 0 0 1.0996875 1.0925 0 0 -1.0996875 1.0925 0 0 -1.0925 -1.0925 0 0 -1.0996875 -1.0925 0 0 1.0996875z" fill="#000000" stroke-width="1"></path><path d="M18.615624999999998 18.6228125h1.0996875v1.0925H18.615624999999998Z" fill="#000000" stroke-width="1"></path><path d="M18.615624999999998 5.476875h1.0996875v1.0925H18.615624999999998Z" fill="#000000" stroke-width="1"></path><path d="M16.430625 21.9075h1.0925V23h-1.0925Z" fill="#000000" stroke-width="1"></path><path d="M16.430625 0h1.0925v1.0925h-1.0925Z" fill="#000000" stroke-width="1"></path><path d="M9.854062500000001 5.476875h1.0996875v1.0925h-1.0996875Z" fill="#000000" stroke-width="1"></path><path d="M9.854062500000001 1.0925h1.0996875v1.0996875h-1.0996875Z" fill="#000000" stroke-width="1"></path><path d="M8.7615625 19.7153125h1.0925v1.0925h-1.0925Z" fill="#000000" stroke-width="1"></path><path d="M8.7615625 6.569375000000001h1.0925v1.0996875h-1.0925Z" fill="#000000" stroke-width="1"></path><path d="M7.661875 18.6228125h1.0996875v1.0925h-1.0996875Z" fill="#000000" stroke-width="1"></path><path d="M7.661875 7.6690625h1.0996875v1.0925h-1.0996875Z" fill="#000000" stroke-width="1"></path><path d="M6.569375000000001 20.8078125h1.0925v1.0996875H6.569375000000001Z" fill="#000000" stroke-width="1"></path><path d="M6.569375000000001 17.523125h1.0925v1.0996875H6.569375000000001Z" fill="#000000" stroke-width="1"></path><path d="M5.476875 16.430625h1.0925v1.0925H5.476875Z" fill="#000000" stroke-width="1"></path><path d="M4.3771875 15.3309375h1.0996875v1.0996875H4.3771875Z" fill="#000000" stroke-width="1"></path><path d="M3.2846875000000004 14.2384375h1.0925v1.0925H3.2846875000000004Z" fill="#000000" stroke-width="1"></path><path d="M3.2846875000000004 2.1921874999999997h1.0925v1.0925H3.2846875000000004Z" fill="#000000" stroke-width="1"></path><path d="m2.1921874999999997 17.523125 0 1.0996875 -1.0996875 0 0 1.0925 1.0996875 0 0 1.0925 1.0925 0 0 -1.0925 1.0925 0 0 -1.0925 -1.0925 0 0 -1.0996875 -1.0925 0z" fill="#000000" stroke-width="1"></path><path d="M2.1921874999999997 13.145937499999999h1.0925v1.0925H2.1921874999999997Z" fill="#000000" stroke-width="1"></path><path d="M2.1921874999999997 3.2846875000000004h1.0925V4.3843749999999995H2.1921874999999997Z" fill="#000000" stroke-width="1"></path><path d="M2.1921874999999997 1.0925h1.0925v1.0996875H2.1921874999999997Z" fill="#000000" stroke-width="1"></path><path d="M1.0925 12.04625h1.0996875v1.0996875H1.0925Z" fill="#000000" stroke-width="1"></path><path d="M1.0925 2.1921874999999997h1.0996875v1.0925H1.0925Z" fill="#000000" stroke-width="1"></path><path d="M0 15.3309375h1.0925v1.0996875H0Z" fill="#000000" stroke-width="1"></path></g></svg>