<svg xmlns="http://www.w3.org/2000/svg" viewBox="-0.5 -0.5 24 24" id="Multiple-User--Streamline-Pixel.svg" height="24" width="24"><desc>Multiple User Streamline Icon: https://streamlinehq.com</desc><title>multiple-user</title><g><path d="M21.9075 13.14234375H23v1.0996875h-1.0925Z" fill="#000000" stroke-width="1"></path><path d="M19.7153125 12.04984375h2.1921874999999997v1.0925h-2.1921874999999997Z" fill="#000000" stroke-width="1"></path><path d="M19.7153125 9.85765625h1.0925v1.0996875h-1.0925Z" fill="#000000" stroke-width="1"></path><path d="m16.430625 10.95734375 0 -2.1921874999999997 -1.0925 0 0 -1.0996875 -1.0996875 0 0 -2.185 1.0996875 0 0 -1.0996875 4.3771875 0 0 1.0996875 1.0925 0 0 4.3771875 1.0996875 0 0 -6.569375000000001 -1.0996875 0 0 -1.0996875 -1.0925 0 0 -1.0925 -4.3771875 0 0 1.0925 -1.0996875 0 0 1.0996875 -1.0925 0 0 3.2846875000000004 -3.2846875000000004 0 0 -3.2846875000000004 -1.0996875 0 0 -1.0996875 -1.0925 0 0 -1.0925 -4.3843749999999995 0 0 1.0925 -1.0925 0 0 1.0996875 -1.0925 0 0 6.569375000000001 1.0925 0 0 -4.3771875 1.0925 0 0 -1.0996875 4.3843749999999995 0 0 1.0996875 1.0925 0 0 2.185 -1.0925 0 0 1.0996875 -1.0925 0 0 2.1921874999999997 -3.291875 0 0 1.0925 3.291875 0 0 4.3771875 1.0925 0 0 -5.4696875 1.0925 0 0 -1.0996875 5.476875 0 0 1.0996875 1.0996875 0 0 5.4696875 1.0925 0 0 -4.3771875 3.2846875000000004 0 0 -1.0925 -3.2846875000000004 0z" fill="#000000" stroke-width="1"></path><path d="M17.523125 20.811406249999997h1.0996875v1.0925h-1.0996875Z" fill="#000000" stroke-width="1"></path><path d="M16.430625 19.71890625h1.0925v1.0925h-1.0925Z" fill="#000000" stroke-width="1"></path><path d="M14.2384375 18.61921875h2.1921874999999997v1.0996875h-2.1921874999999997Z" fill="#000000" stroke-width="1"></path><path d="M14.2384375 16.42703125h1.0996875v1.0996875h-1.0996875Z" fill="#000000" stroke-width="1"></path><path d="M13.145937499999999 12.04984375h1.0925v2.1921874999999997h-1.0925Z" fill="#000000" stroke-width="1"></path><path d="M8.7615625 17.52671875h5.476875v1.0925h-5.476875Z" fill="#000000" stroke-width="1"></path><path d="M9.86125 15.334531250000001h3.2846875000000004v1.0925h-3.2846875000000004Z" fill="#000000" stroke-width="1"></path><path d="M8.7615625 12.04984375h1.0996875v2.1921874999999997h-1.0996875Z" fill="#000000" stroke-width="1"></path><path d="M7.6690625 16.42703125h1.0925v1.0996875h-1.0925Z" fill="#000000" stroke-width="1"></path><path d="M6.5765625000000005 18.61921875h2.185v1.0996875H6.5765625000000005Z" fill="#000000" stroke-width="1"></path><path d="M5.476875 19.71890625h1.0996875v1.0925H5.476875Z" fill="#000000" stroke-width="1"></path><path d="M4.3843749999999995 20.811406249999997h1.0925v1.0925H4.3843749999999995Z" fill="#000000" stroke-width="1"></path><path d="M2.1921874999999997 9.85765625h1.0925v1.0996875H2.1921874999999997Z" fill="#000000" stroke-width="1"></path><path d="M1.0996875 12.04984375h2.185v1.0925H1.0996875Z" fill="#000000" stroke-width="1"></path><path d="M0 13.14234375h1.0996875v1.0996875H0Z" fill="#000000" stroke-width="1"></path></g></svg>