<svg xmlns="http://www.w3.org/2000/svg" viewBox="-0.5 -0.5 24 24" id="Photography-Camera-1--Streamline-Pixel.svg" height="24" width="24"><desc>Photography Camera 1 Streamline Icon: https://streamlinehq.com</desc><title>photography-camera-1</title><g><path d="m13.692187500000001 9.86125 0 1.0925 1.0925 0 0 4.3843749999999995 1.0925 0 0 -4.3843749999999995 5.476875 0 0 6.569375000000001 1.0996875 0 0 -12.04625 -1.0996875 0 0 4.3843749999999995 -7.661875 0z" fill="#000000" stroke-width="1"></path><path d="M20.2615625 17.523125h1.0925v1.0996875h-1.0925Z" fill="#000000" stroke-width="1"></path><path d="M20.2615625 4.3843749999999995h1.0925v1.0925h-1.0925Z" fill="#000000" stroke-width="1"></path><path d="M19.169062500000003 6.5765625000000005h1.0925v1.0925h-1.0925Z" fill="#000000" stroke-width="1"></path><path d="M2.7384375 18.6228125h17.523125v1.0925H2.7384375Z" fill="#000000" stroke-width="1"></path><path d="M15.8771875 7.6690625h3.291875v1.0925h-3.291875Z" fill="#000000" stroke-width="1"></path><path d="M15.8771875 5.476875h3.291875v1.0996875h-3.291875Z" fill="#000000" stroke-width="1"></path><path d="M14.7846875 6.5765625000000005h1.0925v1.0925h-1.0925Z" fill="#000000" stroke-width="1"></path><path d="M13.692187500000001 15.338125h1.0925v1.0925h-1.0925Z" fill="#000000" stroke-width="1"></path><path d="M12.5925 3.2846875000000004h7.6690625V4.3843749999999995H12.5925Z" fill="#000000" stroke-width="1"></path><path d="m10.4075 15.338125 2.185 0 0 -1.0996875 1.0996875 0 0 -2.1921874999999997 -1.0996875 0 0 1.0996875 -1.0925 0 0 -1.0996875 1.0925 0 0 -1.0925 -2.185 0 0 1.0925 -1.0996875 0 0 2.1921874999999997 1.0996875 0 0 1.0996875z" fill="#000000" stroke-width="1"></path><path d="M9.307812499999999 8.7615625h4.3843749999999995v1.0996875h-4.3843749999999995Z" fill="#000000" stroke-width="1"></path><path d="M9.307812499999999 16.430625h4.3843749999999995v1.0925h-4.3843749999999995Z" fill="#000000" stroke-width="1"></path><path d="M11.5 4.3843749999999995h1.0925v1.0925H11.5Z" fill="#000000" stroke-width="1"></path><path d="M8.2153125 15.338125h1.0925v1.0925h-1.0925Z" fill="#000000" stroke-width="1"></path><path d="M6.023125 3.2846875000000004h3.2846875000000004V4.3843749999999995H6.023125Z" fill="#000000" stroke-width="1"></path><path d="M3.8309375 7.6690625h2.1921874999999997v1.0925H3.8309375Z" fill="#000000" stroke-width="1"></path><path d="m11.5 6.5765625000000005 0 -1.0996875 -1.0925 0 0 -1.0925 -1.0996875 0 0 1.0925 -3.2846875000000004 0 0 -1.0925 -1.0925 0 0 1.0925 -2.1921874999999997 0 0 1.0996875 8.7615625 0z" fill="#000000" stroke-width="1"></path><path d="M1.63875 17.523125h1.0996875v1.0996875H1.63875Z" fill="#000000" stroke-width="1"></path><path d="M1.63875 6.5765625000000005h1.0996875v1.0925H1.63875Z" fill="#000000" stroke-width="1"></path><path d="m1.63875 10.95375 5.476875 0 0 4.3843749999999995 1.0996875 0 0 -4.3843749999999995 1.0925 0 0 -1.0925 -7.6690625 0 0 -2.1921874999999997 -1.0925 0 0 9.854062500000001 1.0925 0 0 -6.569375000000001z" fill="#000000" stroke-width="1"></path></g></svg>