<svg xmlns="http://www.w3.org/2000/svg" viewBox="-0.5 -0.5 24 24" id="Social-Rewards-Heart-Like-Circle--Streamline-Pixel.svg" height="24" width="24"><desc>Social Rewards Heart Like Circle Streamline Icon: https://streamlinehq.com</desc><title>social-rewards-heart-like-circle</title><g><path d="M21.9003125 8.7615625H23v5.476875h-1.0996875Z" fill="#000000" stroke-width="1"></path><path d="M20.8078125 14.2384375h1.0925v2.1921874999999997h-1.0925Z" fill="#000000" stroke-width="1"></path><path d="M20.8078125 6.569375000000001h1.0925v2.1921874999999997h-1.0925Z" fill="#000000" stroke-width="1"></path><path d="M19.7153125 16.430625h1.0925v2.185h-1.0925Z" fill="#000000" stroke-width="1"></path><path d="M19.7153125 4.3771875h1.0925v2.1921874999999997h-1.0925Z" fill="#000000" stroke-width="1"></path><path d="M18.615624999999998 18.615624999999998h1.0996875v1.0996875H18.615624999999998Z" fill="#000000" stroke-width="1"></path><path d="M18.615624999999998 3.2846875000000004h1.0996875v1.0925H18.615624999999998Z" fill="#000000" stroke-width="1"></path><path d="M16.423437500000002 19.7153125h2.1921874999999997v1.0925h-2.1921874999999997Z" fill="#000000" stroke-width="1"></path><path d="M17.523125 7.6690625h-1.0996875V6.569375000000001h-3.2846875000000004v1.0996875h-1.0925v1.0925h-1.0996875v-1.0925h-1.0925V6.569375000000001H6.569375000000001v1.0996875H5.476875v1.0925H4.3771875v3.2846875000000004h1.0996875v1.0996875h1.0925v1.0925h1.0925v1.0925h1.0996875v1.0996875h1.0925v1.0925h1.0925v1.0925h1.0996875v-1.0925h1.0925v-1.0925h1.0996875v-1.0996875h1.0925v-1.0925h1.0925v-1.0925h1.0996875v-1.0996875h1.0925v-3.2846875000000004h-1.0925Zm-1.0996875 4.3771875h-1.0925v-2.1921874999999997h-2.1921874999999997v-1.0925h2.1921874999999997v1.0925h1.0925Z" fill="#000000" stroke-width="1"></path><path d="M16.423437500000002 2.1921874999999997h2.1921874999999997v1.0925h-2.1921874999999997Z" fill="#000000" stroke-width="1"></path><path d="M14.2384375 20.8078125h2.185v1.0996875h-2.185Z" fill="#000000" stroke-width="1"></path><path d="M14.2384375 1.0925h2.185v1.0996875h-2.185Z" fill="#000000" stroke-width="1"></path><path d="M8.7615625 21.9075h5.476875V23h-5.476875Z" fill="#000000" stroke-width="1"></path><path d="M8.7615625 0h5.476875v1.0925h-5.476875Z" fill="#000000" stroke-width="1"></path><path d="M6.569375000000001 20.8078125h2.1921874999999997v1.0996875H6.569375000000001Z" fill="#000000" stroke-width="1"></path><path d="M6.569375000000001 1.0925h2.1921874999999997v1.0996875H6.569375000000001Z" fill="#000000" stroke-width="1"></path><path d="M4.3771875 19.7153125h2.1921874999999997v1.0925H4.3771875Z" fill="#000000" stroke-width="1"></path><path d="M4.3771875 2.1921874999999997h2.1921874999999997v1.0925H4.3771875Z" fill="#000000" stroke-width="1"></path><path d="M3.2846875000000004 18.615624999999998h1.0925v1.0996875H3.2846875000000004Z" fill="#000000" stroke-width="1"></path><path d="M3.2846875000000004 3.2846875000000004h1.0925v1.0925H3.2846875000000004Z" fill="#000000" stroke-width="1"></path><path d="M2.185 16.430625h1.0996875v2.185H2.185Z" fill="#000000" stroke-width="1"></path><path d="M2.185 4.3771875h1.0996875v2.1921874999999997H2.185Z" fill="#000000" stroke-width="1"></path><path d="M1.0925 14.2384375h1.0925v2.1921874999999997H1.0925Z" fill="#000000" stroke-width="1"></path><path d="M1.0925 6.569375000000001h1.0925v2.1921874999999997H1.0925Z" fill="#000000" stroke-width="1"></path><path d="M0 8.7615625h1.0925v5.476875H0Z" fill="#000000" stroke-width="1"></path></g></svg>