<svg xmlns="http://www.w3.org/2000/svg" viewBox="-0.5 -0.5 24 24" id="Business-Products-Bag-Money--Streamline-Pixel.svg" height="24" width="24"><desc>Business Products Bag Money Streamline Icon: https://streamlinehq.com</desc><title>business-products-bag-money</title><g><path d="M19.71171875 13.145937499999999h1.0996875v5.476875h-1.0996875Z" fill="#000000" stroke-width="1"></path><path d="M18.61921875 18.6228125h1.0925v2.185h-1.0925Z" fill="#000000" stroke-width="1"></path><path d="M18.61921875 10.95375h1.0925v2.1921874999999997h-1.0925Z" fill="#000000" stroke-width="1"></path><path d="M17.52671875 9.86125h1.0925v1.0925h-1.0925Z" fill="#000000" stroke-width="1"></path><path d="M16.42703125 20.8078125h2.1921874999999997v1.0996875h-2.1921874999999997Z" fill="#000000" stroke-width="1"></path><path d="M16.42703125 8.7615625h1.0996875v1.0996875h-1.0996875Z" fill="#000000" stroke-width="1"></path><path d="m16.42703125 3.2846875000000004 1.0996875 0 0 -3.2846875000000004 -2.1921874999999997 0 0 1.0925 1.0925 0 0 2.1921874999999997z" fill="#000000" stroke-width="1"></path><path d="M15.334531250000001 7.6690625h1.0925v1.0925h-1.0925Z" fill="#000000" stroke-width="1"></path><path d="M15.334531250000001 3.2846875000000004h1.0925V4.3843749999999995h-1.0925Z" fill="#000000" stroke-width="1"></path><path d="M6.572968749999999 21.9075h9.854062500000001V23H6.572968749999999Z" fill="#000000" stroke-width="1"></path><path d="M8.75796875 9.86125v1.0925h-1.0925v1.0925h-1.0925v5.476875h1.0925v1.0996875h1.0925v1.0925h5.476875v-1.0925h1.0996875v-1.0996875h1.0925v-5.476875h-1.0925v-1.0925h-1.0996875v-1.0925Zm5.476875 6.569375000000001h-1.0925v1.0925h-1.0925v1.0996875h-1.0996875v-1.0996875h-1.0925v-1.0925h3.2846875000000004v-1.0996875h-3.2846875000000004v-1.0925h-1.0996875v-1.0925h1.0996875v-1.0996875h1.0925v-1.0925h1.0996875v1.0925h1.0925v1.0996875h-3.2846875000000004v1.0925h3.2846875000000004v1.0925h1.0925Z" fill="#000000" stroke-width="1"></path><path d="M14.23484375 6.569375000000001h1.0996875v1.0996875h-1.0996875Z" fill="#000000" stroke-width="1"></path><path d="M14.23484375 4.3843749999999995h1.0996875v1.0925h-1.0996875Z" fill="#000000" stroke-width="1"></path><path d="M14.23484375 1.0925h1.0996875v1.0996875h-1.0996875Z" fill="#000000" stroke-width="1"></path><path d="M13.14234375 2.1921874999999997h1.0925v1.0925h-1.0925Z" fill="#000000" stroke-width="1"></path><path d="M12.04984375 1.0925h1.0925v1.0996875h-1.0925Z" fill="#000000" stroke-width="1"></path><path d="M10.95015625 0h1.0996875v1.0925h-1.0996875Z" fill="#000000" stroke-width="1"></path><path d="M8.75796875 5.476875h5.476875v1.0925h-5.476875Z" fill="#000000" stroke-width="1"></path><path d="M9.85765625 1.0925h1.0925v1.0996875h-1.0925Z" fill="#000000" stroke-width="1"></path><path d="M8.75796875 2.1921874999999997h1.0996875v1.0925h-1.0996875Z" fill="#000000" stroke-width="1"></path><path d="M7.66546875 6.569375000000001h1.0925v1.0996875h-1.0925Z" fill="#000000" stroke-width="1"></path><path d="M7.66546875 4.3843749999999995h1.0925v1.0925h-1.0925Z" fill="#000000" stroke-width="1"></path><path d="M7.66546875 1.0925h1.0925v1.0996875h-1.0925Z" fill="#000000" stroke-width="1"></path><path d="M6.572968749999999 7.6690625h1.0925v1.0925h-1.0925Z" fill="#000000" stroke-width="1"></path><path d="M6.572968749999999 3.2846875000000004h1.0925V4.3843749999999995h-1.0925Z" fill="#000000" stroke-width="1"></path><path d="M4.38078125 20.8078125h2.1921874999999997v1.0996875h-2.1921874999999997Z" fill="#000000" stroke-width="1"></path><path d="M5.47328125 8.7615625h1.0996875v1.0996875h-1.0996875Z" fill="#000000" stroke-width="1"></path><path d="m7.66546875 1.0925 0 -1.0925 -2.1921874999999997 0 0 3.2846875000000004 1.0996875 0 0 -2.1921874999999997 1.0925 0z" fill="#000000" stroke-width="1"></path><path d="M4.38078125 9.86125h1.0925v1.0925h-1.0925Z" fill="#000000" stroke-width="1"></path><path d="M3.2882812500000003 18.6228125h1.0925v2.185h-1.0925Z" fill="#000000" stroke-width="1"></path><path d="M3.2882812500000003 10.95375h1.0925v2.1921874999999997h-1.0925Z" fill="#000000" stroke-width="1"></path><path d="M2.18859375 13.145937499999999h1.0996875v5.476875h-1.0996875Z" fill="#000000" stroke-width="1"></path></g></svg>