<svg xmlns="http://www.w3.org/2000/svg" viewBox="-0.5 -0.5 24 24" id="Business-Products-Magic-Rabbit--Streamline-Pixel.svg" height="24" width="24"><desc>Business Products Magic Rabbit Streamline Icon: https://streamlinehq.com</desc><title>business-products-magic-rabbit</title><g><path d="M21.903906250000002 8.7615625h-1.0925v2.1921874999999997h-1.0996875v-1.0925h-1.0925v-1.0996875h2.1921874999999997v-1.0925h-2.1921874999999997V6.569375000000001h-1.0925v4.3843749999999995h-1.0996875v1.0925H6.572968749999999v-1.0925h-1.0996875v-4.3843749999999995H4.3843749999999995v1.0996875H2.18859375v1.0925H4.3843749999999995v1.0996875H3.2882812500000003v1.0925h-1.0996875v-2.1921874999999997h-1.0925v3.2846875000000004h1.0925v1.0996875H4.3843749999999995v7.661875h1.0925v1.0996875h1.0996875V23h9.854062500000001v-1.0925h1.0996875v-1.0996875h1.0925V13.145937499999999h2.1921874999999997v-1.0996875h1.0925Zm-4.3771875 6.5765625000000005H5.47328125v-1.0996875h12.0534375Z" fill="#000000" stroke-width="1"></path><path d="M16.42703125 5.476875h1.0996875v1.0925h-1.0996875Z" fill="#000000" stroke-width="1"></path><path d="M16.42703125 1.0996875h1.0996875v2.185h-1.0996875Z" fill="#000000" stroke-width="1"></path><path d="M15.334531250000001 3.2846875000000004h1.0925v2.1921874999999997h-1.0925Z" fill="#000000" stroke-width="1"></path><path d="M14.23484375 0h2.1921874999999997v1.0996875h-2.1921874999999997Z" fill="#000000" stroke-width="1"></path><path d="M14.23484375 7.6690625h1.0996875v1.0925h-1.0996875Z" fill="#000000" stroke-width="1"></path><path d="M13.14234375 1.0996875h1.0925v2.185h-1.0925Z" fill="#000000" stroke-width="1"></path><path d="M12.04984375 3.2846875000000004h1.0925V4.3843749999999995h-1.0925Z" fill="#000000" stroke-width="1"></path><path d="m10.95015625 10.95375 1.0996875 0 0 -1.0925 1.0925 0 0 -1.0996875 -3.2846875000000004 0 0 1.0996875 1.0925 0 0 1.0925z" fill="#000000" stroke-width="1"></path><path d="M10.95015625 4.3843749999999995h1.0996875v1.0925h-1.0996875Z" fill="#000000" stroke-width="1"></path><path d="M9.85765625 3.2846875000000004h1.0925V4.3843749999999995h-1.0925Z" fill="#000000" stroke-width="1"></path><path d="M8.75796875 1.0996875h1.0996875v2.185h-1.0996875Z" fill="#000000" stroke-width="1"></path><path d="M7.66546875 7.6690625h1.0925v1.0925h-1.0925Z" fill="#000000" stroke-width="1"></path><path d="M6.572968749999999 0h2.185v1.0996875h-2.185Z" fill="#000000" stroke-width="1"></path><path d="M6.572968749999999 3.2846875000000004h1.0925v2.1921874999999997h-1.0925Z" fill="#000000" stroke-width="1"></path><path d="M5.47328125 5.476875h1.0996875v1.0925h-1.0996875Z" fill="#000000" stroke-width="1"></path><path d="M5.47328125 1.0996875h1.0996875v2.185h-1.0996875Z" fill="#000000" stroke-width="1"></path></g></svg>