<svg xmlns="http://www.w3.org/2000/svg" viewBox="-0.5 -0.5 24 24" id="Business-Product-Startup-2--Streamline-Pixel.svg" height="24" width="24"><desc>Business Product Startup 2 Streamline Icon: https://streamlinehq.com</desc><title>business-product-startup-2</title><g><path d="m20.2615625 6.569375000000001 0 1.0996875 -1.0925 0 0 1.0925 1.0925 0 0 1.0996875 1.0925 0 0 -1.0996875 1.0996875 0 0 -1.0925 -1.0996875 0 0 -1.0996875 -1.0925 0z" fill="#000000" stroke-width="1"></path><path d="M20.2615625 18.6228125h1.0925v1.0925h-1.0925Z" fill="#000000" stroke-width="1"></path><path d="m18.069375 17.523125 -1.0925 0 0 1.0996875 1.0925 0 0 1.0925 1.0996875 0 0 -5.476875 -1.0996875 0 0 3.2846875000000004z" fill="#000000" stroke-width="1"></path><path d="M18.069375 3.2846875000000004h1.0996875V4.3843749999999995h-1.0996875Z" fill="#000000" stroke-width="1"></path><path d="M16.976875 13.145937499999999h1.0925v1.0925h-1.0925Z" fill="#000000" stroke-width="1"></path><path d="m14.7846875 3.2846875000000004 0 -1.0925 -1.0925 0 0 -1.0996875 -1.0996875 0 0 -1.0925 -3.2846875000000004 0 0 1.0925 -1.0925 0 0 1.0996875 -1.0996875 0 0 1.0925 -1.0925 0 0 8.7615625 -1.0925 0 0 1.0996875 1.0925 0 0 3.2846875000000004 -1.0925 0 0 1.0925 2.185 0 0 -12.04625 7.6690625 0 0 12.04625 2.1921874999999997 0 0 -1.0925 -1.0925 0 0 -3.2846875000000004 1.0925 0 0 -1.0996875 -1.0925 0 0 -8.7615625 -1.0996875 0z" fill="#000000" stroke-width="1"></path><path d="M12.5925 19.7153125h1.0996875v2.1921874999999997h-1.0996875Z" fill="#000000" stroke-width="1"></path><path d="M7.1156250000000005 17.523125h7.6690625v1.0996875H7.1156250000000005Z" fill="#000000" stroke-width="1"></path><path d="M11.5 13.145937499999999h1.0925v1.0925H11.5Z" fill="#000000" stroke-width="1"></path><path d="M11.5 7.6690625h1.0925v1.0925H11.5Z" fill="#000000" stroke-width="1"></path><path d="M10.4075 19.7153125H11.5V23h-1.0925Z" fill="#000000" stroke-width="1"></path><path d="M10.4075 14.2384375H11.5v1.0925h-1.0925Z" fill="#000000" stroke-width="1"></path><path d="M10.4075 12.04625H11.5v1.0996875h-1.0925Z" fill="#000000" stroke-width="1"></path><path d="M10.4075 8.7615625H11.5v1.0996875h-1.0925Z" fill="#000000" stroke-width="1"></path><path d="M10.4075 6.569375000000001H11.5v1.0996875h-1.0925Z" fill="#000000" stroke-width="1"></path><path d="M9.307812499999999 13.145937499999999h1.0996875v1.0925h-1.0996875Z" fill="#000000" stroke-width="1"></path><path d="M9.307812499999999 7.6690625h1.0996875v1.0925h-1.0996875Z" fill="#000000" stroke-width="1"></path><path d="M8.2153125 19.7153125h1.0925v2.1921874999999997h-1.0925Z" fill="#000000" stroke-width="1"></path><path d="M3.8309375 13.145937499999999h1.0996875v1.0925H3.8309375Z" fill="#000000" stroke-width="1"></path><path d="m3.8309375 14.2384375 -1.0925 0 0 5.476875 1.0925 0 0 -1.0925 1.0996875 0 0 -1.0996875 -1.0996875 0 0 -3.2846875000000004z" fill="#000000" stroke-width="1"></path><path d="M2.7384375 3.2846875000000004h1.0925V4.3843749999999995H2.7384375Z" fill="#000000" stroke-width="1"></path><path d="M1.6459375 8.7615625h1.0925v1.0996875H1.6459375Z" fill="#000000" stroke-width="1"></path><path d="M1.6459375 4.3843749999999995h1.0925v1.0925H1.6459375Z" fill="#000000" stroke-width="1"></path><path d="M1.6459375 2.1921874999999997h1.0925v1.0925H1.6459375Z" fill="#000000" stroke-width="1"></path><path d="M0.54625 20.8078125h1.0996875v1.0996875H0.54625Z" fill="#000000" stroke-width="1"></path><path d="M0.54625 3.2846875000000004h1.0996875V4.3843749999999995H0.54625Z" fill="#000000" stroke-width="1"></path></g></svg>