<svg xmlns="http://www.w3.org/2000/svg" viewBox="-0.5 -0.5 24 24" id="Business-Products-Treasure--Streamline-Pixel.svg" height="24" width="24"><desc>Business Products Treasure Streamline Icon: https://streamlinehq.com</desc><title>Business-Products-treasure</title><g><path d="m1.0960937499999999 9.86125 0 9.854062500000001 1.0925 0 0 -8.7615625 14.2384375 0 0 8.7615625 -14.2384375 0 0 1.0925 18.6228125 0 0 -1.0925 -3.2846875000000004 0 0 -8.7615625 3.2846875000000004 0 0 8.7615625 1.0925 0 0 -14.2384375 -1.0925 0 0 3.2846875000000004 -1.0996875 0 0 1.0996875 -14.2384375 0 0 -1.0996875 -1.0925 0 0 1.0996875 -3.2846875000000004 0z" fill="#000000" stroke-width="1"></path><path d="M19.71171875 4.3843749999999995h1.0996875v1.0925h-1.0996875Z" fill="#000000" stroke-width="1"></path><path d="M18.61921875 12.04625h1.0925v6.5765625000000005h-1.0925Z" fill="#000000" stroke-width="1"></path><path d="M18.61921875 7.6690625h1.0925v1.0925h-1.0925Z" fill="#000000" stroke-width="1"></path><path d="M18.61921875 3.2846875000000004h1.0925V4.3843749999999995h-1.0925Z" fill="#000000" stroke-width="1"></path><path d="M17.52671875 6.569375000000001h1.0925v1.0996875h-1.0925Z" fill="#000000" stroke-width="1"></path><path d="M17.52671875 4.3843749999999995h1.0925v1.0925h-1.0925Z" fill="#000000" stroke-width="1"></path><path d="M9.85765625 14.2384375h-1.0996875v4.3843749999999995h5.476875v-6.5765625000000005h-4.3771875Zm3.2846875000000004 1.0925v2.1921874999999997h-3.2846875000000004v-2.1921874999999997Z" fill="#000000" stroke-width="1"></path><path d="M7.66546875 12.04625h1.0925v1.0996875h-1.0925Z" fill="#000000" stroke-width="1"></path><path d="M6.572968749999999 12.04625h-3.2846875000000004v6.5765625000000005h4.3771875v-4.3843749999999995h-1.0925Zm0 5.476875H4.3843749999999995v-2.1921874999999997h2.1921874999999997Z" fill="#000000" stroke-width="1"></path><path d="M3.2882812500000003 2.1921874999999997h15.3309375v1.0925H3.2882812500000003Z" fill="#000000" stroke-width="1"></path><path d="M3.2882812500000003 7.6690625h1.0925v1.0925h-1.0925Z" fill="#000000" stroke-width="1"></path><path d="m17.52671875 6.569375000000001 0 -1.0925 -15.338125 0 0 -1.0925 -1.0925 0 0 2.185 1.0925 0 0 1.0996875 1.0996875 0 0 -1.0996875 14.2384375 0z" fill="#000000" stroke-width="1"></path><path d="M2.18859375 3.2846875000000004h1.0996875V4.3843749999999995h-1.0996875Z" fill="#000000" stroke-width="1"></path></g></svg>