<svg xmlns="http://www.w3.org/2000/svg" viewBox="-0.5 -0.5 24 24" id="Email-Emoji-Smile-Smart--Streamline-Pixel.svg" height="24" width="24"><desc>Email Emoji Smile Smart Streamline Icon: https://streamlinehq.com</desc><title>email-emoji-smile-smart</title><g><path d="M21.9075 8.7615625H23v5.476875h-1.0925Z" fill="#000000" stroke-width="1"></path><path d="M20.8078125 14.2384375h1.0996875v2.185h-1.0996875Z" fill="#000000" stroke-width="1"></path><path d="M19.7153125 16.423437500000002h1.0925v2.1921874999999997h-1.0925Z" fill="#000000" stroke-width="1"></path><path d="M19.7153125 4.3771875h1.0925v2.1921874999999997h-1.0925Z" fill="#000000" stroke-width="1"></path><path d="M18.6228125 18.615624999999998h1.0925v1.0925h-1.0925Z" fill="#000000" stroke-width="1"></path><path d="M18.6228125 3.2846875000000004h1.0925v1.0925h-1.0925Z" fill="#000000" stroke-width="1"></path><path d="M16.430625 19.708125000000003h2.1921874999999997v1.0996875h-2.1921874999999997Z" fill="#000000" stroke-width="1"></path><path d="M16.430625 2.185h2.1921874999999997v1.0996875h-2.1921874999999997Z" fill="#000000" stroke-width="1"></path><path d="M14.2384375 20.8078125h2.1921874999999997v1.0925h-2.1921874999999997Z" fill="#000000" stroke-width="1"></path><path d="M14.2384375 1.0925h2.1921874999999997v1.0925h-2.1921874999999997Z" fill="#000000" stroke-width="1"></path><path d="M8.7615625 21.9003125h5.476875V23h-5.476875Z" fill="#000000" stroke-width="1"></path><path d="M9.86125 16.423437500000002h4.3771875v1.0996875h-4.3771875Z" fill="#000000" stroke-width="1"></path><path d="M8.7615625 0h5.476875v1.0925h-5.476875Z" fill="#000000" stroke-width="1"></path><path d="M8.7615625 15.3309375h1.0996875v1.0925h-1.0996875Z" fill="#000000" stroke-width="1"></path><path d="M6.569375000000001 20.8078125h2.1921874999999997v1.0925H6.569375000000001Z" fill="#000000" stroke-width="1"></path><path d="M6.569375000000001 1.0925h2.1921874999999997v1.0925H6.569375000000001Z" fill="#000000" stroke-width="1"></path><path d="M4.3843749999999995 19.708125000000003h2.185v1.0996875H4.3843749999999995Z" fill="#000000" stroke-width="1"></path><path d="M4.3843749999999995 2.185h2.185v1.0996875H4.3843749999999995Z" fill="#000000" stroke-width="1"></path><path d="M3.2846875000000004 18.615624999999998H4.3843749999999995v1.0925H3.2846875000000004Z" fill="#000000" stroke-width="1"></path><path d="M3.2846875000000004 3.2846875000000004H4.3843749999999995v1.0925H3.2846875000000004Z" fill="#000000" stroke-width="1"></path><path d="M2.1921874999999997 16.423437500000002h1.0925v2.1921874999999997H2.1921874999999997Z" fill="#000000" stroke-width="1"></path><path d="m2.1921874999999997 10.9465625 1.0925 0 0 1.0996875 1.0996875 0 0 1.0925 4.3771875 0 0 -1.0925 1.0996875 0 0 -1.0996875 1.0925 0 0 -1.0925 2.1921874999999997 0 0 1.0925 1.0925 0 0 1.0996875 1.0925 0 0 1.0925 4.3843749999999995 0 0 -1.0925 1.0925 0 0 -3.2846875000000004 1.0996875 0 0 -2.1921874999999997 -1.0996875 0 0 1.0925 -18.615624999999998 0 0 -1.0925 -1.0925 0 0 2.1921874999999997 1.0925 0 0 2.185z" fill="#000000" stroke-width="1"></path><path d="M2.1921874999999997 4.3771875h1.0925v2.1921874999999997H2.1921874999999997Z" fill="#000000" stroke-width="1"></path><path d="M1.0996875 14.2384375h1.0925v2.185H1.0996875Z" fill="#000000" stroke-width="1"></path><path d="M0 8.7615625h1.0996875v5.476875H0Z" fill="#000000" stroke-width="1"></path></g></svg>