<svg xmlns="http://www.w3.org/2000/svg" viewBox="-0.5 -0.5 24 24" id="Entertainment-Events-Hobbies-Board-Game-Dice--Streamline-Pixel.svg" height="24" width="24"><desc>Entertainment Events Hobbies Board Game Dice Streamline Icon: https://streamlinehq.com</desc><title>entertainment-events-hobbies-board-game-dice</title><g><path d="M12.59609375 22.45375v-1.0925h2.185v-1.0996875h2.1921874999999997v-1.0925h2.1921874999999997v-1.0996875h1.0925v-1.0925h1.0996875V6.023125h-1.0996875V4.930625h-1.0925v1.0925h-2.1921874999999997v1.0996875h-2.1921874999999997v1.0925h-2.185v1.0925h-2.1921874999999997v1.0996875H11.5v10.95375h-1.0925v1.0925Zm4.3771875 -13.145937499999999h2.1921874999999997v1.0996875h-2.1921874999999997Zm-3.2846875000000004 6.5765625000000005H15.884375v2.185h-2.1921874999999997Z" fill="#000000" stroke-width="1"></path><path d="M16.97328125 3.838125h2.1921874999999997v1.0925h-2.1921874999999997Z" fill="#000000" stroke-width="1"></path><path d="M14.78109375 2.7384375h2.1921874999999997v1.0996875h-2.1921874999999997Z" fill="#000000" stroke-width="1"></path><path d="M12.59609375 1.6459375h2.185v1.0925h-2.185Z" fill="#000000" stroke-width="1"></path><path d="M10.40390625 4.930625h2.1921874999999997v2.1921874999999997h-2.1921874999999997Z" fill="#000000" stroke-width="1"></path><path d="M10.40390625 0.54625h2.1921874999999997v1.0996875h-2.1921874999999997Z" fill="#000000" stroke-width="1"></path><path d="M8.211718750000001 20.2615625h2.1921874999999997v1.0996875h-2.1921874999999997Z" fill="#000000" stroke-width="1"></path><path d="M8.211718750000001 8.2153125h2.1921874999999997v1.0925h-2.1921874999999997Z" fill="#000000" stroke-width="1"></path><path d="M8.211718750000001 1.6459375h2.1921874999999997v1.0925h-2.1921874999999997Z" fill="#000000" stroke-width="1"></path><path d="M8.211718750000001 15.884375h2.1921874999999997v2.185h-2.1921874999999997Z" fill="#000000" stroke-width="1"></path><path d="M8.211718750000001 11.5h2.1921874999999997v2.1921874999999997h-2.1921874999999997Z" fill="#000000" stroke-width="1"></path><path d="M6.01953125 19.169062500000003h2.1921874999999997v1.0925h-2.1921874999999997Z" fill="#000000" stroke-width="1"></path><path d="M6.01953125 7.1228125h2.1921874999999997v1.0925h-2.1921874999999997Z" fill="#000000" stroke-width="1"></path><path d="M6.01953125 2.7384375h2.1921874999999997v1.0996875h-2.1921874999999997Z" fill="#000000" stroke-width="1"></path><path d="M3.83453125 18.069375h2.185v1.0996875h-2.185Z" fill="#000000" stroke-width="1"></path><path d="M3.83453125 6.023125h2.185v1.0996875h-2.185Z" fill="#000000" stroke-width="1"></path><path d="M3.83453125 3.838125h2.185v1.0925h-2.185Z" fill="#000000" stroke-width="1"></path><path d="M3.83453125 13.692187500000001h2.185v2.1921874999999997h-2.185Z" fill="#000000" stroke-width="1"></path><path d="M3.83453125 9.307812499999999h2.185V11.5h-2.185Z" fill="#000000" stroke-width="1"></path><path d="M2.73484375 16.976875h1.0996875v1.0925h-1.0996875Z" fill="#000000" stroke-width="1"></path><path d="M2.73484375 4.930625h1.0996875v1.0925h-1.0996875Z" fill="#000000" stroke-width="1"></path><path d="M1.6423437500000002 6.023125h1.0925v10.95375h-1.0925Z" fill="#000000" stroke-width="1"></path></g></svg>