<svg xmlns="http://www.w3.org/2000/svg" viewBox="-0.5 -0.5 24 24" id="Entertainment-Events-Hobbies-Chess-Knight--Streamline-Pixel.svg" height="24" width="24"><desc>Entertainment Events Hobbies Chess Knight Streamline Icon: https://streamlinehq.com</desc><title>entertainment-events-hobbies-chess-knight</title><g><path d="M19.169062500000003 19.161875h1.0925v2.1921874999999997h-1.0925Z" fill="#000000" stroke-width="1"></path><path d="M18.076562499999998 7.1156250000000005h1.0925v2.1921874999999997h-1.0925Z" fill="#000000" stroke-width="1"></path><path d="M4.930625 21.3540625h14.2384375v1.0996875H4.930625Z" fill="#000000" stroke-width="1"></path><path d="M16.976875 9.307812499999999h1.0996875v1.0925h-1.0996875Z" fill="#000000" stroke-width="1"></path><path d="M16.976875 6.023125h1.0996875V7.1156250000000005h-1.0996875Z" fill="#000000" stroke-width="1"></path><path d="M15.884375 12.5925h1.0925v2.1921874999999997H15.884375Z" fill="#000000" stroke-width="1"></path><path d="M15.884375 4.930625h1.0925v1.0925H15.884375Z" fill="#000000" stroke-width="1"></path><path d="m13.692187500000001 10.4003125 0 1.0996875 1.0925 0 0 1.0925 1.0996875 0 0 -1.0925 1.0925 0 0 -1.0996875 -3.2846875000000004 0z" fill="#000000" stroke-width="1"></path><path d="M14.7846875 7.1156250000000005h1.0996875v1.0996875h-1.0996875Z" fill="#000000" stroke-width="1"></path><path d="M14.7846875 2.7384375h1.0996875v2.1921874999999997h-1.0996875Z" fill="#000000" stroke-width="1"></path><path d="M13.692187500000001 1.63875h1.0925v1.0996875h-1.0925Z" fill="#000000" stroke-width="1"></path><path d="M12.599687500000002 9.307812499999999h1.0925v1.0925h-1.0925Z" fill="#000000" stroke-width="1"></path><path d="M12.599687500000002 4.930625h1.0925v1.0925h-1.0925Z" fill="#000000" stroke-width="1"></path><path d="M12.599687500000002 0.54625h1.0925v1.0925h-1.0925Z" fill="#000000" stroke-width="1"></path><path d="M11.5 8.2153125h1.0996875v1.0925H11.5Z" fill="#000000" stroke-width="1"></path><path d="M11.5 3.8309375h1.0996875v1.0996875H11.5Z" fill="#000000" stroke-width="1"></path><path d="M10.4075 4.930625H11.5v1.0925h-1.0925Z" fill="#000000" stroke-width="1"></path><path d="M10.4075 1.63875h2.1921874999999997v1.0996875h-2.1921874999999997Z" fill="#000000" stroke-width="1"></path><path d="M9.315000000000001 0.54625h1.0925v1.0925h-1.0925Z" fill="#000000" stroke-width="1"></path><path d="M8.2153125 14.7846875h1.0996875v-2.1921874999999997h-1.0996875V11.5H7.1228125V6.023125h1.0925V4.930625h1.0996875V1.63875H7.1228125v1.0996875H4.930625v1.0925H3.838125v1.0996875H2.7384375V11.5h1.0996875v1.0925h1.0925v1.0996875h2.1921874999999997v2.185h1.0925ZM6.023125 11.5H4.930625v-1.0996875h1.0925Zm0 -3.2846875000000004H3.838125V7.1156250000000005h2.185Zm0 -3.2846875000000004V3.8309375h1.0996875v1.0996875Z" fill="#000000" stroke-width="1"></path><path d="m19.169062500000003 19.161875 0 -1.0925 -1.0925 0 0 -3.2846875000000004 -1.0996875 0 0 3.2846875000000004 -9.854062500000001 0 0 -2.1921874999999997 -1.0996875 0 0 2.1921874999999997 -1.0925 0 0 1.0925 14.2384375 0z" fill="#000000" stroke-width="1"></path><path d="M3.838125 19.161875h1.0925v2.1921874999999997H3.838125Z" fill="#000000" stroke-width="1"></path></g></svg>